<svg width="62" height="62" viewBox="0 0 62 62" fill="none" xmlns="http://www.w3.org/2000/svg">
<path d="M4.20312 45.8667L31.2559 61.6065V32.1436L4.20312 16.3546V45.8667Z" fill="#F0B551"/>
<path d="M31.2559 61.6065L58.3086 45.8667V16.3546L31.2559 32.1436V61.6065Z" fill="#EDC654"/>
<path d="M58.3085 16.3546L31.4525 0.614838L4.35059 16.3546L31.4525 32.1436L58.3085 16.3546Z" fill="#EFDC81"/>
<path d="M20.1891 7.10748L46.9959 22.4046V51.9659L42.0772 54.8187V25.5034L15.2212 9.81276L20.1891 7.10748Z" fill="#F4EFEF"/>
<path d="M31.01 62C30.9116 62 30.8624 62 30.764 61.9508L3.71127 46.211C3.56371 46.1126 3.46533 45.9651 3.46533 45.7683V16.2562C3.46533 16.0595 3.56371 15.9119 3.71127 15.8136C3.85883 15.7152 4.05557 15.7152 4.20313 15.8136L31.2559 31.5533C31.4035 31.6517 31.5018 31.7993 31.5018 31.996V61.5081C31.5018 61.7049 31.4035 61.8524 31.2559 61.9508C31.1575 61.9508 31.1083 62 31.01 62ZM4.44907 45.4732L30.5181 60.6719V32.3403L4.44907 17.1416V45.4732Z" fill="black"/>
<path d="M31.0594 62C30.9118 62 30.7151 61.9016 30.6167 61.7541C30.4691 61.5081 30.5675 61.213 30.8134 61.0654L57.5711 45.4732V17.1416L31.4529 32.4387C31.2069 32.5863 30.9118 32.4879 30.7643 32.242C30.6167 31.996 30.7151 31.7009 30.961 31.5533L57.817 15.8136C57.9646 15.7152 58.1613 15.7152 58.3089 15.8136C58.4564 15.9119 58.5548 16.0595 58.5548 16.2562V45.7683C58.5548 45.9651 58.4564 46.1126 58.3089 46.211L31.3053 61.9508C31.2561 61.9508 31.1577 62 31.0594 62Z" fill="black"/>
<path d="M3.95732 16.7481C3.80976 16.7481 3.61302 16.6497 3.51464 16.5022C3.36708 16.2562 3.46546 15.9611 3.71139 15.8136L31.2068 0.0737803C31.3544 -0.0245934 31.5511 -0.0245934 31.6987 0.0737803L58.3088 15.8136C58.5547 15.9611 58.6039 16.2562 58.5055 16.5022C58.358 16.7481 58.0628 16.7973 57.8169 16.6989L31.4528 1.1067L4.20326 16.6989C4.10489 16.7481 4.0557 16.7481 3.95732 16.7481Z" fill="black"/>
<path d="M39.7161 24.3229C39.6177 24.3229 39.5686 24.3229 39.4702 24.2737L15.3194 10.2555C15.0735 10.1079 15.0243 9.81279 15.1227 9.56685C15.2211 9.32092 15.5654 9.27173 15.8113 9.3701L39.962 23.3884C40.208 23.5359 40.2572 23.831 40.1588 24.077C40.0604 24.2245 39.9129 24.3229 39.7161 24.3229Z" fill="black"/>
<path d="M46.8482 23.0932C46.7498 23.0932 46.7006 23.0932 46.6023 23.044L20.1398 7.55017C19.8938 7.40261 19.8446 7.10749 19.943 6.86156C20.0906 6.61562 20.3857 6.56644 20.6316 6.66481L47.0941 22.1587C47.3401 22.3062 47.3893 22.6013 47.2909 22.8473C47.1925 22.9948 47.045 23.0932 46.8482 23.0932Z" fill="black"/>
<path d="M41.8312 55.163C41.5361 55.163 41.3394 54.9663 41.3394 54.6712V26.1428C41.3394 25.8477 41.5361 25.6509 41.8312 25.6509C42.1263 25.6509 42.3231 25.8477 42.3231 26.1428V54.6712C42.3231 54.9663 42.1263 55.163 41.8312 55.163Z" fill="black"/>
<path d="M46.7497 50.2443C46.4546 50.2443 46.2578 50.0476 46.2578 49.7525V22.6997C46.2578 22.4046 46.4546 22.2079 46.7497 22.2079C47.0448 22.2079 47.2415 22.4046 47.2415 22.6997V49.7525C47.2415 50.0476 47.0448 50.2443 46.7497 50.2443Z" fill="black"/>
</svg>
