<svg width="51" height="51" viewBox="0 0 51 51" fill="none" xmlns="http://www.w3.org/2000/svg">
<mask id="mask0_59_1821" style="mask-type:luminance" maskUnits="userSpaceOnUse" x="0" y="0" width="51" height="51">
<path d="M50.3169 0H0V50.3159H50.3169V0Z" fill="white"/>
</mask>
<g mask="url(#mask0_59_1821)">
<path d="M18.9342 1.9375H4.84375C3.23868 1.9375 1.9375 3.23868 1.9375 4.84375V22.2144C1.9375 23.8195 3.23868 25.1207 4.84375 25.1207H18.9342C20.5393 25.1207 21.8405 23.8195 21.8405 22.2144V4.84375C21.8405 3.23868 20.5393 1.9375 18.9342 1.9375Z" stroke="black" stroke-width="4" stroke-linecap="round" stroke-linejoin="round"/>
<path d="M45.4733 1.9375H31.3828C29.7778 1.9375 28.4766 3.23868 28.4766 4.84375V8.98225C28.4766 10.5874 29.7778 11.8885 31.3828 11.8885H45.4733C47.0784 11.8885 48.3795 10.5874 48.3795 8.98225V4.84375C48.3795 3.23868 47.0784 1.9375 45.4733 1.9375Z" stroke="#426AB2" stroke-width="4" stroke-linecap="round" stroke-linejoin="round"/>
<path d="M45.4733 18.5235H31.3828C29.7778 18.5235 28.4766 19.8246 28.4766 21.4297V45.4732C28.4766 47.0783 29.7778 48.3794 31.3828 48.3794H45.4733C47.0784 48.3794 48.3795 47.0783 48.3795 45.4732V21.4297C48.3795 19.8246 47.0784 18.5235 45.4733 18.5235Z" stroke="black" stroke-width="4" stroke-linecap="round" stroke-linejoin="round"/>
<path d="M18.9342 31.7924H4.84375C3.23868 31.7924 1.9375 33.0935 1.9375 34.6987V45.4721C1.9375 47.0772 3.23868 48.3784 4.84375 48.3784H18.9342C20.5393 48.3784 21.8405 47.0772 21.8405 45.4721V34.6987C21.8405 33.0935 20.5393 31.7924 18.9342 31.7924Z" stroke="#426AB2" stroke-width="4" stroke-linecap="round" stroke-linejoin="round"/>
</g>
</svg>
