<svg width="62" height="62" viewBox="0 0 62 62" fill="none" xmlns="http://www.w3.org/2000/svg">
<path d="M15.5 51.6667V10.3334C15.5 7.49169 17.825 5.16669 20.6667 5.16669H41.3333C44.175 5.16669 46.5 7.49169 46.5 10.3334V51.6667C46.5 54.5084 44.175 56.8334 41.3333 56.8334H20.6667C17.825 56.8334 15.5 54.5084 15.5 51.6667Z" fill="#37474F"/>
<path d="M41.3333 9.04169H20.6667C19.8917 9.04169 19.375 9.55835 19.375 10.3334V47.7917C19.375 48.5667 19.8917 49.0834 20.6667 49.0834H41.3333C42.1083 49.0834 42.625 48.5667 42.625 47.7917V10.3334C42.625 9.55835 42.1083 9.04169 41.3333 9.04169Z" fill="#BBDEFB"/>
<path d="M27.125 51.6667H34.875V54.25H27.125V51.6667Z" fill="#78909C"/>
</svg>
