<svg width="62" height="62" viewBox="0 0 62 62" fill="none" xmlns="http://www.w3.org/2000/svg">
<g clip-path="url(#clip0_59_1861)">
<path opacity="0.5" d="M23.3895 57.2504C36.3072 57.2504 46.779 54.653 46.779 51.449C46.779 48.245 36.3072 45.6476 23.3895 45.6476C10.4718 45.6476 0 48.245 0 51.449C0 54.653 10.4718 57.2504 23.3895 57.2504Z" fill="#B8CBCD"/>
<path d="M52.9363 51.5593C49.9927 51.5593 47.233 50.4187 45.1602 48.3336C43.0874 46.2608 41.9345 43.4889 41.9345 40.5575C41.9345 37.6139 43.0752 34.8543 45.1602 32.7815C45.1602 32.7815 45.1602 32.7815 45.1725 32.7692L56.7017 21.4363C58.2225 19.9154 59.0566 17.8917 59.0566 15.7453C59.0566 13.5989 58.2225 11.5752 56.7017 10.0543C53.5618 6.91442 48.4473 6.91442 45.3074 10.0543L34.8944 20.4673C34.3179 21.0438 33.3858 21.0438 32.8093 20.4673C32.2328 19.8909 32.2328 18.9587 32.8093 18.3823L43.2224 7.96922C47.5151 3.67644 54.494 3.67644 58.7745 7.96922C60.8473 10.042 62.0002 12.8139 62.0002 15.7453C62.0002 18.6766 60.8595 21.4485 58.7745 23.5213C58.7745 23.5213 58.7745 23.5213 58.7622 23.5336L47.233 34.8665C45.7122 36.3874 44.8781 38.4112 44.8781 40.5575C44.8781 42.7039 45.7122 44.7277 47.233 46.2485C50.3729 49.3884 55.4874 49.3884 58.6273 46.2485C59.2038 45.6721 60.1359 45.6721 60.7124 46.2485C61.2888 46.825 61.2888 47.7572 60.7124 48.3336C58.6396 50.4187 55.8799 51.5593 52.9363 51.5593Z" fill="#324654"/>
<path d="M9.89786 44.0286C4.31725 38.448 4.31725 29.3105 9.89786 23.7299L21.2676 12.3601C26.8482 6.77953 35.9857 6.77953 41.5663 12.3601C47.1469 17.9408 47.1469 27.0782 41.5663 32.6589L30.1843 44.0286C24.6037 49.6092 15.4785 49.6092 9.89786 44.0286Z" fill="#B9E3ED"/>
<path d="M18.3242 48.1252C17.0241 47.4628 15.7976 46.592 14.706 45.5004C9.12537 39.9198 9.12537 30.7823 14.706 25.2017L26.0757 13.832C29.2646 10.6431 33.6187 9.28164 37.8011 9.73545C32.4045 7.00034 25.6096 7.87116 21.1206 12.3602L9.75089 23.7299C4.17028 29.3228 4.17028 38.448 9.75089 44.0286C12.1426 46.4203 15.1843 47.794 18.3242 48.1252Z" fill="white"/>
<path d="M33.3734 7.68713C34.6735 8.34945 35.9 9.22027 36.9916 10.3119C42.5723 15.8925 42.5723 25.03 36.9916 30.6106L25.6219 41.9803C22.433 45.1692 18.0789 46.5307 13.8965 46.0768C19.2931 48.8242 26.088 47.9411 30.577 43.4521L41.9467 32.0824C47.5273 26.5018 47.5273 17.3643 41.9467 11.7837C39.555 9.39198 36.5133 8.03056 33.3734 7.68713Z" fill="#A1D2DB"/>
<path d="M20.0413 49.695C15.7976 49.695 11.8237 48.0515 8.85552 45.0833C2.68618 38.914 2.68618 28.8689 8.85552 22.6995L20.2253 11.3298C23.2057 8.3494 27.1796 6.71814 31.411 6.71814C35.6547 6.71814 39.6286 8.36166 42.5968 11.3298C48.7661 17.4991 48.7661 27.5443 42.5968 33.7136L31.227 45.0833C28.2589 48.0515 24.285 49.695 20.0413 49.695ZM31.411 9.64949C27.9645 9.64949 24.7265 10.9864 22.2981 13.4026L10.9283 24.7723C5.9119 29.7888 5.9119 37.9696 10.9283 42.986C13.3445 45.4022 16.5825 46.7391 20.0413 46.7391C23.4878 46.7391 26.7257 45.4022 29.1542 42.986L40.524 31.6163C45.5404 26.5998 45.5404 18.419 40.524 13.4026C38.0955 10.9864 34.8575 9.64949 31.411 9.64949Z" fill="#324654"/>
<path d="M27.2244 25.5056L28.6987 26.98L43.1645 12.5142L41.6902 11.0398L27.2244 25.5056Z" fill="#324654"/>
<path d="M17.397 15.6462L38.5581 36.8073L40.0325 35.3329L18.8714 14.1718L17.397 15.6462Z" fill="#324654"/>
<path d="M37.0863 14.4048L31.4058 20.0853L34.1116 22.7912L39.7921 17.1107L37.0863 14.4048Z" fill="white"/>
<path d="M34.1094 23.8279C33.8396 23.8279 33.5698 23.7298 33.3735 23.5213L30.6629 20.823C30.2582 20.4183 30.2582 19.7559 30.6629 19.3512L36.3417 13.6725C36.7464 13.2677 37.4087 13.2677 37.8135 13.6725L40.5241 16.383C40.9288 16.7878 40.9288 17.4501 40.5241 17.8549L34.8453 23.5336C34.6491 23.7298 34.3793 23.8279 34.1094 23.8279ZM32.8829 20.0871L34.1094 21.3136L38.3163 17.1067L37.0898 15.8802L32.8829 20.0871Z" fill="#324654"/>
</g>
<defs>
<clipPath id="clip0_59_1861">
<rect width="62" height="62" fill="white"/>
</clipPath>
</defs>
</svg>
