<svg width="62" height="62" viewBox="0 0 62 62" fill="none" xmlns="http://www.w3.org/2000/svg">
<path d="M34.3073 32.9375L24.6198 23.25H33.5052L43.1927 32.9375H34.3073ZM7.75 29.0625C7.06606 29.0625 6.42088 28.923 5.8125 28.706V32.9375H19.9427L12.8999 25.8947C11.9331 27.7682 10.0033 29.0625 7.75 29.0625ZM53.5893 16.9744C54.6491 16.8349 55.397 15.8623 55.2575 14.8025L55.0056 12.8805C54.8952 12.0357 54.591 11.2685 54.1686 10.5865L49.5341 17.5092L53.5893 16.9744ZM46.9786 17.8443L52.8395 9.09072C51.8397 8.29828 50.5901 7.82166 49.2493 7.82166C48.9974 7.82166 48.7436 7.83716 48.4859 7.87203L45.3859 8.2789L38.2075 18.9991L46.9786 17.8443ZM54.8177 32.9375L45.1302 23.25H36.2448L45.9323 32.9375H54.8177ZM31.5677 32.9375L21.8802 23.25H20.5976H13.5625C13.5625 23.4263 13.5354 23.5929 13.5141 23.7615L22.6823 32.9375H31.5677ZM11.625 23.25C11.625 21.109 9.89094 19.375 7.75 19.375C5.60906 19.375 3.875 21.109 3.875 23.25C3.875 25.3909 5.60906 27.125 7.75 27.125C9.89094 27.125 11.625 25.3909 11.625 23.25ZM5.8125 34.875H56.1875V50.375C56.1875 53.5854 53.5854 56.1875 50.375 56.1875H11.625C8.41456 56.1875 5.8125 53.5854 5.8125 50.375V34.875ZM23.25 43.5937C23.25 44.1285 23.684 44.5625 24.2188 44.5625H37.7812C38.316 44.5625 38.75 44.1285 38.75 43.5937C38.75 43.059 38.316 42.625 37.7812 42.625H24.2188C23.684 42.625 23.25 43.059 23.25 43.5937ZM23.25 47.4687C23.25 48.0035 23.684 48.4375 24.2188 48.4375H37.7812C38.316 48.4375 38.75 48.0035 38.75 47.4687C38.75 46.934 38.316 46.5 37.7812 46.5H24.2188C23.684 46.5 23.25 46.934 23.25 47.4687ZM54.25 23.25H47.8698L56.1875 31.5677V25.1875C56.1875 24.118 55.3195 23.25 54.25 23.25ZM35.6519 19.3362L42.8323 8.61216L34.0651 9.76109L26.8809 20.491L35.6519 19.3362ZM24.3253 20.8281L31.5115 10.0963L22.7463 11.2433L15.5659 21.9809L24.3253 20.8281ZM13.3571 21.7968L20.1907 11.5785L10.0653 12.9057C7.31988 13.266 5.28356 15.4903 5.04138 18.1369C5.85319 17.7048 6.76575 17.4375 7.75 17.4375C10.4548 17.4375 12.7081 19.2936 13.3571 21.7968Z" fill="#111918"/>
</svg>
