<svg width="62" height="62" viewBox="0 0 62 62" fill="none" xmlns="http://www.w3.org/2000/svg">
<path d="M50.7922 21.223C53.6537 21.223 59.3768 18.8384 59.3768 11.2077C59.3768 3.5769 53.8922 3.09998 52.1037 3.09998C48.7653 3.09998 45.4268 5.48459 42.446 10.6115C39.4653 15.8577 36.1268 21.4615 36.1268 21.4615H36.0076C35.2922 17.7654 34.696 14.7846 34.4576 13.4731C33.8614 10.2538 30.1653 3.45767 22.6537 3.45767C15.023 3.45767 8.10757 7.86921 8.10757 7.86921C6.91526 8.70382 6.08065 10.1346 6.08065 11.8038C6.08065 14.3077 8.10757 16.4538 10.7306 16.4538C11.446 16.4538 12.1614 16.2154 12.7576 15.9769C12.7576 15.9769 18.4806 12.7577 19.7922 15.9769C20.1499 16.9307 20.5076 18.0038 20.8653 19.1961C22.296 24.2038 23.7268 30.0461 24.7999 35.2923L19.7922 42.4461C19.7922 42.4461 14.1883 40.4192 11.3268 40.4192C8.46526 40.4192 2.74219 42.8038 2.74219 50.4346C2.74219 58.0654 8.2268 58.5423 10.0153 58.5423C13.3537 58.5423 16.6922 56.1577 19.673 51.0307C22.6537 45.7846 25.9922 40.1807 25.9922 40.1807C26.946 44.95 27.7807 48.6461 28.2576 50.3154C30.1653 55.6807 34.5768 58.9 40.2999 58.9C40.2999 58.9 46.2614 58.9 53.296 54.9654C54.9653 54.25 56.1576 52.5807 56.1576 50.673C56.1576 48.1692 54.1307 46.023 51.5076 46.023C50.7922 46.023 50.0768 46.2615 49.4807 46.5C49.4807 46.5 44.473 49.3615 42.8037 47.0961C41.6114 44.7115 40.5383 41.6115 39.7037 37.7961C38.9883 34.4577 38.1537 30.4038 37.3191 26.4692L42.446 19.0769C42.3268 19.1961 47.9306 21.223 50.7922 21.223Z" fill="black"/>
</svg>
