<svg width="62" height="62" viewBox="0 0 62 62" fill="none" xmlns="http://www.w3.org/2000/svg">
<g clip-path="url(#clip0_59_1913)">
<path d="M31 62C48.1208 62 62 48.1208 62 31C62 13.8792 48.1208 0 31 0C13.8792 0 0 13.8792 0 31C0 48.1208 13.8792 62 31 62Z" fill="#324A5E"/>
<path d="M26.997 38.4205V41.1055C26.8506 41.0567 26.6553 41.0567 26.5088 41.0567C26.3624 41.0567 26.1671 41.0567 26.0206 41.1055V38.9087H19.5765V41.1055C19.4301 41.0567 19.2348 41.0567 19.0883 41.0567C18.9419 41.0567 18.7466 41.0567 18.6002 41.1055V38.9087H12.1561V41.1055C12.0096 41.0567 11.8143 41.0567 11.6679 41.0567C11.5214 41.0567 11.3261 41.0567 11.1797 41.1055V38.4205C11.1797 38.1764 11.375 37.9323 11.6679 37.9323H18.6002V33.978C18.7466 34.0268 18.9419 34.0268 19.0883 34.0268C19.2348 34.0268 19.4301 34.0268 19.5765 33.978V37.9323H26.5088C26.7529 37.9323 26.997 38.1764 26.997 38.4205Z" fill="#E6E9EE"/>
<path d="M43.4001 25.5323V28.315C43.2536 28.2662 43.0584 28.2662 42.9119 28.2662C42.7655 28.2662 42.5702 28.2662 42.4237 28.315V25.9229H19.5765V28.315C19.43 28.2662 19.2347 28.2662 19.0883 28.2662C18.9418 28.2662 18.7466 28.2662 18.6001 28.315V25.5323C18.6001 25.1906 18.8442 24.9465 19.1859 24.9465H30.5119V19.1859C30.6584 19.1859 30.8536 19.1859 31.0001 19.1859C31.1466 19.1859 31.3418 19.1859 31.4883 19.1859V24.9953H42.8143C43.156 24.9465 43.4001 25.2394 43.4001 25.5323Z" fill="#E6E9EE"/>
<path d="M50.8207 38.4205V41.1055C50.6743 41.0567 50.479 41.0567 50.3326 41.0567C50.1861 41.0567 49.9908 41.0567 49.8444 41.1055V38.9087H43.4003V41.1055C43.2538 41.0567 43.0585 41.0567 42.9121 41.0567C42.7656 41.0567 42.5703 41.0567 42.4239 41.1055V38.9087H35.9798V41.1055C35.8333 41.0567 35.6381 41.0567 35.4916 41.0567C35.3452 41.0567 35.1499 41.0567 35.0034 41.1055V38.4205C35.0034 38.1764 35.1987 37.9323 35.4916 37.9323H42.4239V33.978C42.5703 34.0268 42.7656 34.0268 42.9121 34.0268C43.0585 34.0268 43.2538 34.0268 43.4003 33.978V37.9323H50.3326C50.5766 37.9323 50.8207 38.1764 50.8207 38.4205Z" fill="#E6E9EE"/>
<path d="M30.9999 19.1858C34.2353 19.1858 36.8581 16.563 36.8581 13.3276C36.8581 10.0921 34.2353 7.4693 30.9999 7.4693C27.7644 7.4693 25.1416 10.0921 25.1416 13.3276C25.1416 16.563 27.7644 19.1858 30.9999 19.1858Z" fill="white"/>
<path d="M30.9999 16.5496C32.7794 16.5496 34.2219 15.1071 34.2219 13.3276C34.2219 11.5481 32.7794 10.1055 30.9999 10.1055C29.2204 10.1055 27.7778 11.5481 27.7778 13.3276C27.7778 15.1071 29.2204 16.5496 30.9999 16.5496Z" fill="#FF7058"/>
<path d="M42.9116 34.0267C44.5023 34.0267 45.7919 32.7372 45.7919 31.1464C45.7919 29.5557 44.5023 28.2661 42.9116 28.2661C41.3208 28.2661 40.0312 29.5557 40.0312 31.1464C40.0312 32.7372 41.3208 34.0267 42.9116 34.0267Z" fill="#4CDBC4"/>
<path d="M19.0883 34.0267C20.6791 34.0267 21.9686 32.7372 21.9686 31.1464C21.9686 29.5557 20.6791 28.2661 19.0883 28.2661C17.4976 28.2661 16.208 29.5557 16.208 31.1464C16.208 32.7372 17.4976 34.0267 19.0883 34.0267Z" fill="#84DBFF"/>
<path d="M26.5083 46.2315C27.9373 46.2315 29.0957 45.0731 29.0957 43.6441C29.0957 42.2151 27.9373 41.0567 26.5083 41.0567C25.0793 41.0567 23.9209 42.2151 23.9209 43.6441C23.9209 45.0731 25.0793 46.2315 26.5083 46.2315Z" fill="#FF7058"/>
<path d="M19.0879 46.2315C20.5169 46.2315 21.6753 45.0731 21.6753 43.6441C21.6753 42.2151 20.5169 41.0567 19.0879 41.0567C17.6589 41.0567 16.5005 42.2151 16.5005 43.6441C16.5005 45.0731 17.6589 46.2315 19.0879 46.2315Z" fill="#FF7058"/>
<path d="M11.6675 46.2315C13.0965 46.2315 14.2549 45.0731 14.2549 43.6441C14.2549 42.2151 13.0965 41.0567 11.6675 41.0567C10.2385 41.0567 9.08008 42.2151 9.08008 43.6441C9.08008 45.0731 10.2385 46.2315 11.6675 46.2315Z" fill="#FF7058"/>
<path d="M50.332 46.2315C51.761 46.2315 52.9194 45.0731 52.9194 43.6441C52.9194 42.2151 51.761 41.0567 50.332 41.0567C48.903 41.0567 47.7446 42.2151 47.7446 43.6441C47.7446 45.0731 48.903 46.2315 50.332 46.2315Z" fill="#FFD05B"/>
<path d="M42.9116 46.2315C44.3406 46.2315 45.499 45.0731 45.499 43.6441C45.499 42.2151 44.3406 41.0567 42.9116 41.0567C41.4826 41.0567 40.3242 42.2151 40.3242 43.6441C40.3242 45.0731 41.4826 46.2315 42.9116 46.2315Z" fill="#FFD05B"/>
<path d="M35.4912 46.2315C36.9202 46.2315 38.0786 45.0731 38.0786 43.6441C38.0786 42.2151 36.9202 41.0567 35.4912 41.0567C34.0622 41.0567 32.9038 42.2151 32.9038 43.6441C32.9038 45.0731 34.0622 46.2315 35.4912 46.2315Z" fill="#FFD05B"/>
</g>
<defs>
<clipPath id="clip0_59_1913">
<rect width="62" height="62" fill="white"/>
</clipPath>
</defs>
</svg>
