<svg width="62" height="62" viewBox="0 0 62 62" fill="none" xmlns="http://www.w3.org/2000/svg">
<path d="M61.9487 43.8339C61.5452 41.2507 59.4338 39.3763 56.9287 39.3763C55.2881 39.3763 53.6966 40.1109 52.6694 41.3413C52.0502 42.0846 51.6574 42.9666 51.5178 43.9024C51.4966 43.9024 51.3754 43.9024 51.3445 43.9005C50.8785 43.862 50.1469 41.8402 49.7204 40.5692C50.0909 39.9338 50.4309 39.3445 50.7043 38.8641C50.7235 38.8304 50.7428 38.7967 50.762 38.7641C51.1952 39.0192 51.6593 39.2223 52.1455 39.3687C52.7262 39.5428 53.3269 39.6314 53.9286 39.6314C56.6793 39.6314 59.0594 37.8618 59.8517 35.2257C60.4496 33.2385 59.923 30.924 58.5193 29.3402C57.3427 27.9884 55.4797 26.7821 53.6562 26.1899C52.7291 25.8895 51.7633 25.7384 50.7861 25.7384C48.5323 25.7384 46.2284 26.5702 44.2814 28.0586C43.3658 27.1449 42.3184 26.4825 41.1544 26.083C39.997 25.6863 38.8321 25.4841 37.6931 25.4841C37.3773 25.4841 37.0692 25.5034 36.7679 25.5323C36.6206 25.1634 36.429 24.812 36.1826 24.4934C35.3718 23.4459 34.0962 22.821 32.7714 22.821H32.6828C32.9621 21.7725 33.2221 20.8887 33.4531 20.1559C34.9012 21.5789 36.9355 22.432 39.1306 22.432C43.5499 22.432 47.1448 18.837 47.1448 14.4178C47.1448 11.7817 45.5707 9.03868 43.2388 7.6013C40.8983 6.12541 38.1111 5.31178 35.1611 5.24833L34.8367 5.24542C27.7959 5.24542 21.8497 9.91589 19.3194 17.4342C18.9546 18.5165 18.4394 20.2841 17.7482 22.8211H15.5453C13.5773 22.8211 11.8597 24.1526 11.3668 26.0579L10.4425 29.6413C10.1113 30.9237 10.3982 32.3151 11.2098 33.3625C12.008 34.3917 13.2538 35.0138 14.5556 35.0329C14.2938 36.0467 14.0751 36.8892 13.9201 37.4737L13.7159 38.2487C13.1383 40.4534 12.6685 41.8851 12.3083 42.8122C10.9873 41.7908 9.35837 41.2275 7.64356 41.2275C3.42841 41.2277 0 44.6561 0 48.8713C0 52.5635 2.63912 55.5251 6.71743 56.4148C6.80983 56.435 6.90319 56.4514 6.99571 56.4658C8.12406 56.6372 9.238 56.7248 10.3077 56.7248C16.2625 56.7248 21.1352 54.1012 24.5319 49.2141C24.5917 50.6611 25.1404 52.1053 26.1205 53.1953C27.3086 54.544 29.1803 55.7388 31.0018 56.3146C31.9107 56.6015 32.8572 56.7479 33.8131 56.7479C36.5128 56.7479 39.2452 55.5579 41.3768 53.5053C43.5882 55.6118 46.4487 56.7547 49.5845 56.7547C50.1573 56.7547 50.7379 56.7152 51.3127 56.6382C58.628 55.6581 61.7455 48.8329 61.9919 44.7612C62.0111 44.454 61.9958 44.1421 61.9487 43.8339ZM26.3726 30.7198C25.4233 34.7442 24.3894 38.9882 23.8694 40.6626C22.019 46.6164 17.6845 53.7265 7.64356 52.2006C5.89133 51.8183 4.31433 50.7102 4.31433 48.8713C4.31433 47.0323 5.80475 45.542 7.64356 45.542C8.69586 45.542 9.63373 46.0292 10.244 46.7907C10.7004 47.3607 11.152 47.946 12.4239 48.5238C15.7763 48.2938 17.1647 42.0501 18.0889 38.5811C18.4778 37.1235 19.2577 34.059 20.1223 30.7199H14.6199L15.5452 27.1354H21.06C21.9727 23.6801 22.8643 20.4268 23.4073 18.8122C25.3146 13.1462 29.65 9.44701 35.0839 9.56254C37.2349 9.60782 39.2422 10.1817 40.9368 11.2503C42.1364 11.9907 42.8306 13.3965 42.8306 14.4179C42.8306 16.461 41.1745 18.1179 39.1305 18.1179C37.5986 18.1179 36.141 17.237 35.7212 15.8583C34.9684 13.3781 32.6779 12.3893 31.3848 14.0713C30.2285 15.5752 28.8411 20.0829 27.8005 24.5917C27.629 25.335 27.4287 26.1995 27.2122 27.1353H32.7712L31.8469 30.7198H26.3726ZM50.7399 52.3623C46.9167 52.8735 43.542 50.8594 42.0267 46.6973C41.8948 46.3344 41.7717 45.9915 41.6503 45.6576C40.7135 47.2172 39.8075 48.6797 39.2875 49.3719C37.6673 51.5314 34.9251 53.0295 32.3035 52.2006C31.2657 51.8723 30.0256 51.1011 29.3554 50.3413C28.8778 49.81 28.7412 49.0292 28.8875 48.5333C29.1783 47.5415 30.2171 46.9735 31.2099 47.2642C31.9531 47.4818 32.5356 48.1164 32.5422 48.8452C32.5558 50.1564 33.5263 50.9623 34.3946 50.3298C35.1688 49.7658 36.484 47.7735 37.6306 45.7325C38.2574 44.6186 39.2356 42.9183 40.1135 41.4086C39.6052 40.0269 39.1151 38.7416 38.4903 37.2166C36.5974 32.5914 33.0602 34.4419 33.0602 33.17C33.0602 32.1043 35.4498 28.6864 39.7535 30.1642C41.628 30.8073 42.7363 33.0218 43.6365 35.6289C44.2661 34.6084 44.8717 33.6716 45.3243 33.0765C46.9591 30.9276 49.7118 29.4478 52.3276 30.295C53.3626 30.6301 54.5989 31.4089 55.2642 32.1724C55.7369 32.7057 55.8698 33.4876 55.7206 33.9825C55.423 34.9732 54.3803 35.5346 53.3896 35.2371C52.6473 35.0138 52.0687 34.3754 52.0678 33.6465C52.0591 31.1183 50.1769 32.185 50.2259 32.1494C49.4471 32.7089 48.1185 34.6922 46.9583 36.7246C46.4587 37.5997 45.7375 38.8379 45.0202 40.0606C45.0788 40.2493 45.1387 40.439 45.1993 40.6267C46.3864 44.2816 47.4541 47.9101 50.9934 48.2C53.2848 48.3868 56.2088 47.139 55.7919 44.8467C55.6657 44.1525 56.2964 43.6903 56.929 43.6903C57.5595 43.6903 57.6866 44.4992 57.6866 44.4992C57.5592 46.5808 55.9187 51.668 50.7399 52.3623Z" fill="black"/>
</svg>
