<svg width="62" height="62" viewBox="0 0 62 62" fill="none" xmlns="http://www.w3.org/2000/svg">
<g clip-path="url(#clip0_59_1973)">
<path d="M31 62C48.1208 62 62 48.1208 62 31C62 13.8792 48.1208 0 31 0C13.8792 0 0 13.8792 0 31C0 48.1208 13.8792 62 31 62Z" fill="#324A5E"/>
<path d="M32.8062 31C35.9306 28.4126 41.9353 22.5544 42.0329 15.6709H19.9668C20.0644 22.5544 26.118 28.4126 29.1936 31C26.118 33.5874 20.0644 39.4457 19.9668 46.3292H42.0329C41.9353 39.4457 35.8818 33.5874 32.8062 31Z" fill="white"/>
<path d="M45.011 15.6709H16.989C16.2079 15.6709 15.5732 15.0362 15.5732 14.2551C15.5732 13.474 16.2079 12.8394 16.989 12.8394H44.9622C45.7433 12.8394 46.378 13.474 46.378 14.2551C46.378 15.0362 45.7921 15.6709 45.011 15.6709Z" fill="#FF7058"/>
<path d="M45.011 49.1118H16.989C16.2079 49.1118 15.5732 48.4771 15.5732 47.696C15.5732 46.9149 16.2079 46.2803 16.989 46.2803H44.9622C45.7433 46.2803 46.378 46.9149 46.378 47.696C46.378 48.4771 45.7921 49.1118 45.011 49.1118Z" fill="#FF7058"/>
<path d="M24.3608 23.9213C26.7041 27.1921 29.7309 29.6819 31.0002 30.6583C32.3183 29.6819 35.2963 27.1921 37.6396 23.9213H24.3608Z" fill="#84DBFF"/>
<path d="M24.4096 37.9811C22.945 40.0315 21.7245 42.3748 21.334 44.8645H40.6174C40.2269 42.3748 39.0064 40.0315 37.5419 37.9811H24.4096Z" fill="#84DBFF"/>
<path d="M31.0003 33.6363C31.4048 33.6363 31.7326 33.2647 31.7326 32.8064C31.7326 32.348 31.4048 31.9764 31.0003 31.9764C30.5959 31.9764 30.2681 32.348 30.2681 32.8064C30.2681 33.2647 30.5959 33.6363 31.0003 33.6363Z" fill="#84DBFF"/>
<path d="M31.0003 36.0772C31.4048 36.0772 31.7326 35.7056 31.7326 35.2473C31.7326 34.7889 31.4048 34.4174 31.0003 34.4174C30.5959 34.4174 30.2681 34.7889 30.2681 35.2473C30.2681 35.7056 30.5959 36.0772 31.0003 36.0772Z" fill="#84DBFF"/>
<path d="M44.6692 15.6709H43.2046V46.2803H44.6692V15.6709Z" fill="#E6E9EE"/>
<path d="M18.844 15.6709H17.3794V46.2803H18.844V15.6709Z" fill="#E6E9EE"/>
</g>
<defs>
<clipPath id="clip0_59_1973">
<rect width="62" height="62" fill="white"/>
</clipPath>
</defs>
</svg>
