<svg width="62" height="62" viewBox="0 0 62 62" fill="none" xmlns="http://www.w3.org/2000/svg">
<g clip-path="url(#clip0_59_1884)">
<path d="M31 62C48.1208 62 62 48.1208 62 31C62 13.8792 48.1208 0 31 0C13.8792 0 0 13.8792 0 31C0 48.1208 13.8792 62 31 62Z" fill="#FF5B62"/>
<path d="M44.7741 52.0741L42.3595 41.7254C42.3595 41.7254 50.6223 33.7755 49.6961 23.5847C48.7692 13.3938 38.501 6.98602 28.0783 9.7644C17.6556 12.5424 15.9293 20.8919 15.8804 22.2618C15.8313 23.6317 17.1151 27.1348 16.1882 29.5285C15.2617 31.9221 11.9427 35.666 12.2511 36.7856C12.5605 37.9046 15.4163 38.0978 15.4163 38.0978C15.4163 38.0978 15.4499 39.1806 15.0701 39.4106C14.6902 39.6402 14.9046 40.5401 15.5294 41.0407C16.1542 41.5413 17.1925 41.8811 17.1925 41.8811C17.1925 41.8811 15.9953 42.1515 16.1503 43.0005C16.305 43.8501 16.7294 44.2748 17.6171 44.3129C18.5052 44.3513 18.7371 43.928 18.891 44.3912C19.0453 44.8537 19.1423 44.8924 19.1423 44.8924C19.1423 44.8924 18.2552 47.1895 19.0274 48.8876C19.8002 50.5863 20.996 50.5876 22.3863 50.2394C23.7763 49.8914 26.4781 49.1194 26.4781 49.1194L27.2178 52.8861C27.9912 58.3684 24.2578 61.1867 24.1791 61.2455C26.3737 61.7381 28.6558 61.9999 30.9992 61.9999C37.9033 61.9999 44.279 59.7421 49.431 55.9258C48.9343 55.6863 44.9505 52.2509 44.7736 52.0739L44.7741 52.0741Z" fill="#FAD24D"/>
<path d="M19.2832 49.3637C20.0523 50.5822 21.1416 50.5511 22.3871 50.2391C23.7771 49.8911 26.4788 49.1191 26.4788 49.1191L27.2186 52.8859C27.4826 54.7568 27.2211 56.317 26.7599 57.5636L26.7603 57.563C29.341 53.8807 27.4378 51.0662 27.7777 49.6689C28.1176 48.2714 33.5185 46.9497 34.6512 46.081C35.7845 45.2123 36.5961 42.8145 36.5961 42.8145C36.5961 42.8145 35.463 44.5516 34.2549 45.609C33.0464 46.6664 23.6613 49.4231 21.8673 50.0272C20.1638 50.6007 19.36 49.4785 19.2832 49.3637Z" fill="#EDB937"/>
<path d="M25.5157 10.6234C32.0071 8.24528 39.6953 9.52802 44.3584 14.2972C49.9157 19.9801 51.2106 30.3216 41.5061 41.2645L44.7744 52.0741L42.3598 41.7254C42.3598 41.7254 50.6226 33.7755 49.6964 23.5847C48.7695 13.3938 38.5012 6.98602 28.0786 9.7644C27.1574 10.01 26.3056 10.2995 25.5156 10.6232L25.5157 10.6234Z" fill="#EDB937"/>
<path d="M36.3037 32.3336V31.1558L35.7923 31.1024C35.7479 30.9499 35.6878 30.8045 35.6138 30.6676L35.9534 30.2772L35.1205 29.4447L34.7209 29.7687C34.5845 29.6939 34.4401 29.6327 34.2882 29.5873L34.2524 29.0722H33.0746L33.0212 29.5836C32.869 29.628 32.7237 29.6881 32.5867 29.7621L32.1963 29.4225L31.3634 30.2554L31.6877 30.6554C31.6128 30.7917 31.5515 30.9364 31.5061 31.0886L30.9902 31.1245V32.3019L31.5016 32.3552C31.5461 32.5074 31.6061 32.653 31.6801 32.79L31.3406 33.18L32.1734 34.0129L32.5731 33.6886C32.7094 33.7634 32.8545 33.8246 33.0063 33.87L33.0422 34.3859H34.2199L34.2733 33.8745C34.4255 33.8297 34.5709 33.7696 34.7078 33.6957L35.0979 34.0352L35.9307 33.2027L35.6064 32.8027C35.6812 32.6664 35.7424 32.5213 35.7878 32.3694L36.3037 32.3336ZM33.6469 32.8754C33.0135 32.8754 32.5002 32.3621 32.5002 31.7286C32.5002 31.0952 33.0135 30.582 33.6469 30.582C34.2802 30.582 34.7935 31.0953 34.7935 31.7286C34.7937 32.3619 34.2804 32.8754 33.6469 32.8754Z" fill="white"/>
<path d="M46.1211 27.1192V25.1915L44.714 25.051C44.6182 24.6954 44.4775 24.357 44.2977 24.0451L45.1924 22.9509L43.8297 21.5886L42.7359 22.4841C42.4235 22.3044 42.0859 22.1631 41.73 22.0675L41.5895 20.6608H39.6618L39.5211 22.0675C39.1651 22.1631 38.8274 22.3044 38.5148 22.4842L37.4206 21.5887L36.0583 22.951L36.9534 24.0452C36.7741 24.3572 36.633 24.6951 36.5371 25.0511L35.1304 25.1916V27.1193L36.5371 27.26C36.6327 27.6157 36.774 27.9534 36.9534 28.2659L36.0583 29.3605L37.4206 30.7228L38.5148 29.8277C38.827 30.0074 39.165 30.1482 39.5207 30.2444L39.6615 31.6511H41.5891L41.7296 30.2444C42.0856 30.1482 42.4234 30.0075 42.7359 29.8277L43.8297 30.7224L45.1924 29.3605L44.2977 28.2659C44.4774 27.9534 44.6181 27.6157 44.714 27.2596L46.1211 27.1192ZM40.6254 29.4822C38.7879 29.4822 37.2989 27.9929 37.2989 26.1558C37.2989 24.3184 38.7879 22.8289 40.6254 22.8289C42.4628 22.8289 43.9522 24.3183 43.9522 26.1558C43.9522 27.9929 42.4628 29.4822 40.6254 29.4822Z" fill="white"/>
<path d="M34.6286 24.8993L35.1298 22.9898L33.9959 22.5444C34.0343 22.1162 34.0317 21.6852 33.9892 21.257L35.1188 20.8003L34.5982 18.8961L33.3953 19.0775C33.2164 18.6919 32.9991 18.3193 32.744 17.9658L33.4936 17.0059L32.09 15.617L31.1381 16.3765C30.7817 16.1253 30.4072 15.9117 30.0197 15.7371L30.1886 14.5323L28.2787 14.0314L27.8337 15.1651C27.4056 15.127 26.9743 15.129 26.5461 15.1721L26.0896 14.0425L24.1848 14.5632L24.3664 15.7662V15.7679C23.9808 15.9467 23.6082 16.1637 23.2548 16.4191L22.2951 15.6688L20.906 17.0724L21.6658 18.0243C21.4145 18.3805 21.2013 18.7552 21.0266 19.1427L19.8215 18.9738L19.3203 20.8837L20.4546 21.3284C20.4166 21.7564 20.4185 22.1878 20.4616 22.616L19.3321 23.0727L19.853 24.9772L21.056 24.7952C21.2347 25.1807 21.452 25.5537 21.7063 25.9072L20.9568 26.8668L22.3601 28.2558L23.312 27.496C23.6682 27.7475 24.043 27.9603 24.4305 28.1354L24.2612 29.3402L26.1711 29.8411L26.6165 28.7074C27.0446 28.7452 27.4756 28.7433 27.9038 28.7004L28.3606 29.83L30.2648 29.3087L30.0831 28.1057C30.4691 27.9265 30.8417 27.7095 31.1951 27.4545L32.155 28.2041L33.5441 26.8008L32.7844 25.8485C33.0355 25.4928 33.2488 25.1176 33.4237 24.7301L34.6286 24.8993ZM27.2248 26.3146C24.8065 26.3146 22.8461 24.3542 22.8461 21.9359C22.8461 19.5175 24.8065 17.5571 27.2248 17.5571C29.6433 17.5571 31.6036 19.5175 31.6036 21.9359C31.6036 24.3542 29.6432 26.3146 27.2248 26.3146Z" fill="white"/>
</g>
<defs>
<clipPath id="clip0_59_1884">
<rect width="62" height="62" fill="white"/>
</clipPath>
</defs>
</svg>
