<svg width="62" height="62" viewBox="0 0 62 62" fill="none" xmlns="http://www.w3.org/2000/svg">
<path d="M25.8332 28.8411C25.4284 28.985 24.9941 29.0626 24.5409 29.0626C22.4009 29.0626 20.6659 27.3275 20.6659 25.1874C20.6659 23.0476 22.4009 21.3124 24.5409 21.3124C24.994 21.3124 25.4282 21.3901 25.8332 21.5338V12.9163H16.5696C16.7125 13.3213 16.791 13.7555 16.791 14.2086C16.791 16.3486 15.056 18.0836 12.916 18.0836C10.7761 18.0836 9.04101 16.3487 9.04101 14.2086C9.04101 13.7555 9.11954 13.3213 9.26243 12.9163H1.29102V37.4576H9.90848C9.7656 37.8627 9.68707 38.2978 9.68707 38.75C9.68707 40.8899 11.4221 42.625 13.5621 42.625C15.702 42.625 17.4371 40.8901 17.4371 38.75C17.4371 38.2978 17.3585 37.8627 17.2157 37.4576H25.8331V28.8411H25.8332Z" fill="#8CC153"/>
<path d="M49.0841 53.6048C46.9422 53.6048 45.209 51.8697 45.209 49.7297C45.209 47.5896 46.9422 45.8547 49.0841 45.8547C49.5343 45.8547 49.9696 45.9322 50.3744 46.076V37.4575H25.833V62H50.3744V53.3834C49.9695 53.5253 49.5342 53.6048 49.0841 53.6048Z" fill="#37BC9B"/>
<path d="M27.1246 45.8548C26.6715 45.8548 26.2373 45.9323 25.8333 46.0761V37.4576H1.29102V46.0761C1.69591 45.9322 2.13012 45.8548 2.58337 45.8548C4.72331 45.8548 6.45837 47.5897 6.45837 49.7298C6.45837 51.8699 4.72331 53.6049 2.58337 53.6049C2.13025 53.6049 1.69603 53.5254 1.29102 53.3835V62H25.8334V53.3834C26.2373 53.5253 26.6716 53.6048 27.1248 53.6048C29.2647 53.6048 30.9998 51.8697 30.9998 49.7297C30.9998 47.5896 29.2646 45.8548 27.1246 45.8548Z" fill="#4A89DC"/>
<path d="M60.7092 18.5075C60.3043 18.6504 59.869 18.7288 59.415 18.7288C57.2769 18.7288 55.5399 16.9947 55.5399 14.8538C55.5399 12.7139 57.2769 10.9787 59.415 10.9787C59.869 10.9787 60.3043 11.0572 60.7092 11.2001V2.58374H36.1649V11.2002C35.762 11.0574 35.3286 10.9788 34.8746 10.9788C32.7347 10.9788 30.9995 12.7139 30.9995 14.8539C30.9995 16.9949 32.7346 18.7289 34.8746 18.7289C35.3286 18.7289 35.762 18.6505 36.1649 18.5077V27.1251H44.7834C44.6414 27.53 44.5621 27.9633 44.5621 28.4174C44.5621 30.5573 46.297 32.2924 48.4371 32.2924C50.5771 32.2924 52.3121 30.5574 52.3121 28.4174C52.3121 27.9633 52.2326 27.53 52.0908 27.1251H60.7092V18.5075Z" fill="#F6BB42"/>
<path d="M49.0841 51.0202C46.9422 51.0202 45.209 49.2852 45.209 47.1451C45.209 45.0053 46.9422 43.2701 49.0841 43.2701C49.5343 43.2701 49.9696 43.3495 50.3744 43.4915V34.8749H25.833V59.4171H50.3744V50.7987C49.9695 50.9426 49.5342 51.0202 49.0841 51.0202Z" fill="#48CFAD"/>
<path d="M27.1246 43.2702C26.6715 43.2702 26.2373 43.3496 25.8333 43.4916V34.875H1.29102V43.4916C1.69591 43.3496 2.13012 43.2702 2.58337 43.2702C4.72331 43.2702 6.45837 45.0053 6.45837 47.1452C6.45837 49.2852 4.72331 51.0203 2.58337 51.0203C2.13025 51.0203 1.69603 50.9426 1.29102 50.7989V59.4174H25.8334V50.7989C26.2373 50.9428 26.6716 51.0203 27.1248 51.0203C29.2647 51.0203 30.9998 49.2853 30.9998 47.1452C30.9996 45.0053 29.2646 43.2702 27.1246 43.2702Z" fill="#5D9CEC"/>
<path d="M60.7092 15.9248C60.3043 16.0676 59.869 16.1461 59.415 16.1461C57.2769 16.1461 55.5399 14.4111 55.5399 12.2711C55.5399 10.131 57.2769 8.39593 59.415 8.39593C59.869 8.39593 60.3043 8.47446 60.7092 8.61735V0H36.1649V8.61747C35.762 8.47459 35.3286 8.39606 34.8746 8.39606C32.7347 8.39606 30.9995 10.1311 30.9995 12.2712C30.9995 14.4112 32.7346 16.1462 34.8746 16.1462C35.3286 16.1462 35.762 16.0678 36.1649 15.9249V24.5424H44.7834C44.6414 24.9453 44.5621 25.3805 44.5621 25.8326C44.5621 27.9726 46.297 29.7078 48.4371 29.7078C50.5771 29.7078 52.3121 27.9727 52.3121 25.8326C52.3121 25.3805 52.2326 24.9453 52.0908 24.5424H60.7092V15.9248Z" fill="#FFCE54"/>
<path d="M25.8332 26.2584C25.4284 26.4003 24.9941 26.4798 24.5409 26.4798C22.4009 26.4798 20.6659 24.7447 20.6659 22.6048C20.6659 20.4649 22.4009 18.7288 24.5409 18.7288C24.994 18.7288 25.4282 18.8074 25.8332 18.9502V10.3337H16.5696C16.7125 10.7377 16.791 11.1719 16.791 11.625C16.791 13.7649 15.056 15.5 12.916 15.5C10.7761 15.5 9.04101 13.7651 9.04101 11.625C9.04101 11.1719 9.11954 10.7377 9.26243 10.3337H1.29102V34.8751H9.90848C9.7656 35.28 9.68707 35.7133 9.68707 36.1674C9.68707 38.3073 11.4221 40.0424 13.5621 40.0424C15.702 40.0424 17.4371 38.3074 17.4371 36.1674C17.4371 35.7133 17.3585 35.28 17.2157 34.8751H25.8331V26.2584H25.8332Z" fill="#A0D468"/>
</svg>
