<svg width="62" height="62" viewBox="0 0 62 62" fill="none" xmlns="http://www.w3.org/2000/svg">
<path d="M56.1875 59.0938V31.9688H40.6875V59.0938H1.9375V61.0312H60.0625V59.0938H56.1875Z" fill="#8F6C56"/>
<path d="M44.5625 0.96875H4.84375C4.32989 0.96875 3.83708 1.17288 3.47373 1.53623C3.11038 1.89958 2.90625 2.39239 2.90625 2.90625C2.90625 3.42011 3.11038 3.91292 3.47373 4.27627C3.83708 4.63962 4.32989 4.84375 4.84375 4.84375H5.8125V10.6562H7.75V4.84375H47.4688V11.625H49.4062V4.84375L44.5625 0.96875Z" fill="#838BC5"/>
<path d="M6.78125 19.375C9.45638 19.375 11.625 17.2064 11.625 14.5312C11.625 11.8561 9.45638 9.6875 6.78125 9.6875C4.10612 9.6875 1.9375 11.8561 1.9375 14.5312C1.9375 17.2064 4.10612 19.375 6.78125 19.375Z" fill="#8F6C56"/>
<path d="M44.5625 59.0938V47.4688H52.3125V59.0938" fill="#65C8D0"/>
<path d="M29.0625 8.71875H19.375V47.4688H29.0625V8.71875Z" fill="#838BC5"/>
<path d="M15.5 53.2812V47.4688H32.9375V53.2812" fill="#8F6C56"/>
<path d="M13.5625 59.0938V53.2812H34.875V59.0938" fill="#838BC5"/>
<path d="M30.0312 4.84375V8.71875H18.4062V4.84375" fill="#8F6C56"/>
<path d="M60.0625 11.625H38.75V15.5H60.0625V11.625Z" fill="#8F6C56"/>
<path d="M50.375 35.8438H46.5V39.7188H50.375V35.8438Z" fill="#F4ECCE"/>
</svg>
