<svg width="62" height="62" viewBox="0 0 62 62" fill="none" xmlns="http://www.w3.org/2000/svg">
<g clip-path="url(#clip0_59_2045)">
<path d="M55.0863 34.4489C55.0863 49.6606 42.7637 61.992 27.5431 61.992C22.0909 61.992 17.0086 60.4066 12.7278 57.6672C12.719 57.6672 12.7101 57.6583 12.7014 57.6495C11.019 56.5749 9.46881 55.3241 8.06836 53.9237C7.90984 53.765 7.76005 53.6067 7.61038 53.448C6.54463 52.3382 5.57564 51.1315 4.71248 49.8543C4.71248 49.8455 4.71248 49.8455 4.70364 49.8455C4.58037 49.6606 4.4571 49.4755 4.34254 49.2905C4.3337 49.2817 4.32486 49.2728 4.32486 49.2641C4.21031 49.0966 4.10459 48.9206 3.999 48.7357L3.99016 48.7268C3.3032 47.5993 2.68659 46.4103 2.17569 45.1771L2.16685 45.1682C1.9995 44.7631 1.83215 44.3492 1.68236 43.9264C1.60316 43.715 1.52384 43.5037 1.45337 43.2923C1.40929 43.1425 1.35649 42.9927 1.31241 42.8518C1.2067 42.517 1.10098 42.1824 1.01295 41.8476C0.845598 41.2928 0.713484 40.7202 0.599051 40.1477C0.581371 40.0597 0.563813 39.9716 0.546254 39.8922C0.18491 38.1306 0 36.3162 0 34.4489C0 26.8386 3.09164 19.9507 8.07707 14.9739C13.0625 9.98857 19.9417 6.90564 27.552 6.90564C27.8514 6.90564 28.1597 6.91448 28.4592 6.92332C28.7675 6.93216 29.067 6.941 29.3664 6.9674C29.6659 6.98496 29.9654 7.01135 30.265 7.03775C30.3002 7.03775 30.3354 7.04659 30.3707 7.04659C30.6349 7.07299 30.8993 7.10835 31.1635 7.14359C31.3836 7.16999 31.6039 7.20523 31.824 7.24046C32.0266 7.26686 32.2292 7.3021 32.4318 7.33734C34.4666 7.69844 36.4219 8.28865 38.2804 9.08133C38.6856 9.24868 39.0908 9.43371 39.4872 9.62746C39.4959 9.62746 39.5048 9.62746 39.5136 9.6363C39.91 9.82134 40.2976 10.0239 40.6764 10.2354C41.0551 10.4291 41.4162 10.6405 41.7773 10.8607C41.795 10.8695 41.8126 10.8871 41.8301 10.8959C42.1472 11.0897 42.4643 11.2923 42.7726 11.4949C44.0498 12.3404 45.2477 13.2918 46.3576 14.3311C46.4368 14.3929 46.5074 14.4721 46.5866 14.5337C46.7099 14.6659 46.842 14.7892 46.9742 14.9302C46.9918 14.939 47.0094 14.9566 47.027 14.9741C47.168 15.1152 47.3176 15.2649 47.4586 15.4145C47.5291 15.485 47.5995 15.5643 47.6787 15.6347C48.8502 16.8943 49.9159 18.2684 50.8409 19.7394C51.1667 20.2677 51.4839 20.7963 51.7745 21.3424C53.8884 25.2443 55.0863 29.7101 55.0863 34.4489Z" fill="white"/>
<path d="M27.5478 56.6979C15.281 56.6979 5.30127 46.7183 5.30127 34.4515C5.30127 22.1847 15.281 12.205 27.5478 12.205C39.8146 12.205 49.7943 22.1847 49.7943 34.4515C49.7943 46.7183 39.8144 56.6979 27.5478 56.6979Z" fill="#EF8051"/>
<path d="M27.5479 51.4012C18.2017 51.4012 10.5981 43.7976 10.5981 34.4514C10.5981 25.1053 18.2017 17.5017 27.5479 17.5017C36.894 17.5017 44.4976 25.1053 44.4976 34.4514C44.4976 43.7976 36.894 51.4012 27.5479 51.4012Z" fill="#22AEB0"/>
<path d="M27.548 46.1044C21.1225 46.1044 15.895 40.8769 15.895 34.4514C15.895 28.026 21.1225 22.7985 27.548 22.7985C33.9735 22.7985 39.201 28.026 39.201 34.4514C39.2008 40.8769 33.9735 46.1044 27.548 46.1044Z" fill="#E9E950"/>
<path d="M27.548 40.8075C24.0432 40.8075 21.1919 37.9561 21.1919 34.4513C21.1919 30.9465 24.0432 28.0952 27.548 28.0952C31.0528 28.0952 33.9041 30.9466 33.9041 34.4513C33.9041 37.9562 31.0528 40.8075 27.548 40.8075Z" fill="#E88F52"/>
<path opacity="0.1" d="M47.0268 14.9739L35.7876 26.2131L32.0353 29.9566L27.1731 34.8187L27.1467 34.854L19.3162 42.6845L15.5639 46.428L11.8292 50.1715L8.52616 53.4657L8.06806 53.9238C7.90955 53.7652 7.75976 53.6068 7.61009 53.4481C6.54434 52.3296 5.57535 51.1316 4.71219 49.8544C4.71219 49.8456 4.71219 49.8456 4.70335 49.8456C4.5888 49.6607 4.46552 49.4844 4.35993 49.2995C4.22782 49.1144 4.11326 48.9295 3.99883 48.7358L3.98999 48.7269C3.30302 47.5907 2.69525 46.4104 2.17552 45.1772L2.16668 45.1684C1.99933 44.7632 1.83198 44.3493 1.68218 43.9265C1.60299 43.7151 1.52367 43.5038 1.4532 43.2924C1.40912 43.1426 1.35632 42.9928 1.31224 42.852C1.20653 42.5171 1.10081 42.1825 1.01278 41.8477C0.854266 41.284 0.713313 40.7203 0.598879 40.1478C0.581199 40.0598 0.563641 39.9717 0.546082 39.8923C0.193699 38.1306 0.00878906 36.3074 0.00878906 34.4489C0.00878906 26.8386 3.09159 19.9595 8.07702 14.9739C13.0625 9.98857 19.9417 6.90564 27.5519 6.90564C27.8514 6.90564 28.1597 6.91448 28.4592 6.92332C28.7675 6.93216 29.0669 6.941 29.3664 6.9674C29.6659 6.98496 29.9653 7.01135 30.2649 7.03775C30.3001 7.03775 30.3354 7.04659 30.3706 7.04659C30.6349 7.07299 30.8992 7.10835 31.1634 7.14359C31.3836 7.16999 31.6038 7.20523 31.824 7.24046C32.0266 7.26686 32.2292 7.3021 32.4318 7.33734C34.4665 7.69844 36.4218 8.28865 38.2803 9.08133C38.6855 9.24868 39.0907 9.43371 39.4872 9.62746C39.4959 9.62746 39.5047 9.62746 39.5136 9.6363C39.9099 9.82134 40.2975 10.0239 40.6763 10.2354C41.0551 10.4291 41.4162 10.6405 41.7773 10.8607C41.795 10.8695 41.8125 10.8871 41.8301 10.8959C42.1471 11.0897 42.4643 11.2923 42.7726 11.4949C44.0497 12.3404 45.2476 13.2918 46.3575 14.3311C46.428 14.3929 46.5073 14.4632 46.5778 14.5425C46.7099 14.6659 46.842 14.7892 46.9742 14.9302C46.9915 14.9388 47.0092 14.9564 47.0268 14.9739Z" fill="white"/>
<path opacity="0.1" d="M51.7786 21.3447L28.3946 35.1474C28.1811 35.2743 27.9335 35.3083 27.6922 35.2464C27.4508 35.1845 27.2496 35.0329 27.1228 34.8193C26.8628 34.3799 27.0114 33.8073 27.4508 33.5474L50.8379 19.7417C51.1689 20.2647 51.4815 20.797 51.7786 21.3447Z" fill="#040000"/>
<path d="M56.5747 5.42597L49.2462 12.7543L49.0613 12.0584L48.9731 11.715L47.8193 7.32847L54.7073 0.431578L55.1388 0L55.4473 1.17158L56.3016 4.3865L56.3896 4.73004L56.5747 5.42597Z" fill="#B55A6D"/>
<path d="M49.2432 12.7557L54.6724 14.1833L61.9997 6.85604L56.5704 5.42847L49.2432 12.7557Z" fill="#B55A6D"/>
<path d="M57.7814 5.53153L28.274 35.0389C28.1594 35.1536 28.0274 35.2327 27.8776 35.2679C27.7896 35.3032 27.7016 35.312 27.6134 35.312C27.3669 35.312 27.129 35.2151 26.9617 35.0389C26.5917 34.6778 26.5917 34.0877 26.9528 33.7265L38.8527 21.8266L42.5962 18.092L46.3573 14.3309L48.9733 11.7149L56.3017 4.38659L56.4691 4.21923C56.6364 4.04316 56.8743 3.94629 57.1209 3.94629C57.3676 3.94629 57.6053 4.04316 57.7815 4.21923C58.1425 4.58034 58.1425 5.17043 57.7814 5.53153Z" fill="#53431E"/>
<path d="M27.1764 34.8227C26.9347 34.581 26.9347 34.189 27.1764 33.9475L56.6837 4.44007C56.9254 4.19836 57.3174 4.19836 57.5589 4.44007C57.8006 4.68177 57.8006 5.07375 57.5589 5.31545L28.0518 34.8227C27.8101 35.0644 27.4181 35.0644 27.1764 34.8227Z" fill="#53431E"/>
</g>
<defs>
<clipPath id="clip0_59_2045">
<rect width="62" height="62" fill="white"/>
</clipPath>
</defs>
</svg>
