<svg width="54" height="62" viewBox="0 0 54 62" fill="none" xmlns="http://www.w3.org/2000/svg">
<path d="M7.52593 55.8023L3.19275 0H50.8072L46.4694 55.7935L26.9709 62L7.52593 55.8023Z" fill="#264DE4"/>
<path d="M42.7558 52.2409L46.4628 4.56262H27V57.2561L42.7558 52.2409Z" fill="#2965F1"/>
<path d="M13.1267 25.2589L13.6609 32.1027H27V25.2589H13.1267ZM12.595 18.2506H27V11.4066H12.0531L12.595 18.2506ZM27 43.0333L26.9739 43.0413L20.3352 40.9832L19.9109 35.5247H13.9271L14.7623 46.2707L26.9726 50.1627L27 50.1538V43.0333Z" fill="#EBEBEB"/>
<path d="M26.9795 25.2589V32.1027H34.3196L33.6277 40.9788L26.9795 43.039V50.1593L39.1995 46.2707L39.2892 45.1144L40.6898 27.0966L40.8353 25.2589L41.9114 11.4066H26.9795V18.2506H35.3789L34.8364 25.2589H26.9795Z" fill="white"/>
</svg>
