<svg width="26" height="20" viewBox="0 0 26 20" fill="none" xmlns="http://www.w3.org/2000/svg">
<g clip-path="url(#clip0_43_218)">
<path d="M1.77277 19.9999H5.90911V10.0946L0 5.72461V18.2519C0 19.2177 0.793305 20 1.77277 20V19.9999Z" fill="#4285F4"/>
<path d="M20.0909 19.9999H24.2273C25.2067 19.9999 26.0001 19.2176 26.0001 18.2519V5.72461L20.0909 10.0946V19.9999Z" fill="#34A853"/>
<path d="M20.0909 2.51977V10.0944L26.0001 5.72442V3.39379C26.0001 1.23356 23.4991 -0.000230372 21.7455 1.2962L20.0909 2.51977Z" fill="#FBBC04"/>
<path fill-rule="evenodd" clip-rule="evenodd" d="M5.90906 10.0947V2.52002L12.9999 7.76402L20.0908 2.52002V10.0947L12.9999 15.3386L5.90906 10.0947Z" fill="#EA4335"/>
<path d="M0 3.39379V5.72442L5.90911 10.0944V2.51978L4.25455 1.2962C2.50098 -0.000228167 0 1.23356 0 3.39369V3.39379Z" fill="#C5221F"/>
</g>
<defs>
<clipPath id="clip0_43_218">
<rect width="26" height="20" fill="white"/>
</clipPath>
</defs>
</svg>
