<svg width="169" height="169" viewBox="0 0 169 169" fill="none" xmlns="http://www.w3.org/2000/svg">
<path fill-rule="evenodd" clip-rule="evenodd" d="M86.2605 19.9576C83.0185 19.4066 78.5991 19.3649 70.6265 19.3649C57.1299 19.3649 47.5366 19.376 40.2632 20.3495C33.1378 21.3031 29.0436 23.0919 26.0676 26.0678C23.0875 29.048 21.3012 33.1297 20.3488 40.2142C19.3758 47.4506 19.3646 56.9898 19.3646 70.4173V98.584C19.3646 112.011 19.3758 121.55 20.3488 128.786C21.3012 135.871 23.0875 139.952 26.0676 142.932C29.0477 145.913 33.1294 147.699 40.2139 148.652C47.4504 149.625 56.9895 149.636 70.4167 149.636H98.5834C112.01 149.636 121.55 149.625 128.786 148.652C135.87 147.699 139.952 145.913 142.932 142.932C145.913 139.952 147.699 135.871 148.651 128.786C149.624 121.55 149.635 112.011 149.635 98.584V95.5054C149.635 84.6894 149.559 79.5623 148.412 75.6986H126.372C118.395 75.6986 111.876 75.6986 106.73 75.0064C101.35 74.2832 96.6863 72.7178 92.9634 68.9953C89.2405 65.2723 87.6751 60.6084 86.9519 55.2289C86.2604 50.0824 86.2605 43.5637 86.2605 35.5867V19.9576ZM96.8229 25.4168V35.2086C96.8229 43.6566 96.8342 49.4613 97.4201 53.8214C97.9862 58.0297 98.9988 60.0932 100.433 61.5264C101.865 62.9597 103.929 63.9725 108.137 64.5383C112.498 65.1245 118.302 65.1357 126.75 65.1357H140.971C138.883 63.1109 136.208 60.6848 132.735 57.559L104.859 32.4703C101.441 29.3942 98.8974 27.1235 96.8229 25.4168ZM71.6525 8.80218C81.4024 8.79957 87.7012 8.79795 93.4986 11.0226C99.296 13.2474 103.958 17.4446 111.169 23.9384C111.418 24.1627 111.67 24.3895 111.925 24.6192L139.801 49.7079C140.098 49.975 140.391 50.2387 140.681 50.4992C149.016 57.9961 154.405 62.8439 157.305 69.3535C160.204 75.8626 160.201 83.112 160.198 94.3224C160.198 94.7118 160.198 95.1061 160.198 95.5054V98.9811C160.198 111.922 160.198 122.172 159.12 130.194C158.009 138.45 155.671 145.132 150.402 150.402C145.132 155.671 138.449 158.01 130.193 159.12C122.172 160.199 111.922 160.199 98.9805 160.199H70.0195C57.0786 160.199 46.8285 160.199 38.8065 159.12C30.5507 158.01 23.8685 155.671 18.5988 150.402C13.3291 145.132 10.9904 138.45 9.88049 130.194C8.80192 122.172 8.80199 111.922 8.80213 98.9811V70.0197C8.80199 57.0788 8.80192 46.8287 9.88049 38.8068C10.9904 30.551 13.3291 23.8688 18.5988 18.599C23.8726 13.3252 30.5772 10.9891 38.8621 9.88033C46.9175 8.80218 57.2185 8.80225 70.2302 8.80239H70.6265C70.9723 8.80239 71.3145 8.80232 71.6525 8.80218Z" fill="#CECFD3" fill-opacity="0.4"/>
<path fill-rule="evenodd" clip-rule="evenodd" d="M72.2707 93.6386C75.0022 94.6624 76.3859 97.7073 75.3613 100.438L64.7992 128.605C63.775 131.335 60.7308 132.719 57.9998 131.695C55.2688 130.671 53.885 127.627 54.9091 124.896L65.4716 96.7292C66.4958 93.9984 69.54 92.6147 72.2707 93.6386ZM53.0261 94.849C55.0885 96.9115 55.0885 100.256 53.0261 102.318L49.7188 105.625L53.0261 108.932C55.0885 110.995 55.0885 114.339 53.0261 116.401C50.9636 118.464 47.6197 118.464 45.5572 116.401L38.5156 109.36C36.4531 107.297 36.4531 103.953 38.5156 101.891L45.5572 94.849C47.6197 92.7865 50.9636 92.7865 53.0261 94.849ZM77.2449 108.932C79.3075 106.87 82.6508 106.87 84.7133 108.932L91.755 115.974C93.8175 118.037 93.8175 121.381 91.755 123.443L84.7133 130.485C82.6508 132.547 79.3075 132.547 77.2449 130.485C75.1824 128.422 75.1824 125.078 77.2449 123.016L80.5517 119.708L77.2449 116.401C75.1824 114.339 75.1824 110.995 77.2449 108.932Z" fill="#CECFD3" fill-opacity="0.4"/>
</svg>
