<svg width="62" height="62" viewBox="0 0 62 62" fill="none" xmlns="http://www.w3.org/2000/svg">
<path d="M40.0416 23.25L40.4849 23.6932C43.9293 27.1377 45.6516 28.86 45.6516 31C45.6516 33.14 43.9293 34.8623 40.4849 38.3067L40.0416 38.75" stroke="white" stroke-width="6" stroke-linecap="round"/>
<path d="M34.3425 18.5234L30.9994 30.9999L27.6566 43.4766" stroke="white" stroke-width="6" stroke-linecap="round"/>
<path d="M21.9588 23.25L21.5155 23.6932C18.0711 27.1377 16.3489 28.86 16.3489 31C16.3489 33.14 18.0711 34.8623 21.5155 38.3067L21.9588 38.75" stroke="white" stroke-width="6" stroke-linecap="round"/>
<path d="M5.16663 31.0001C5.16663 18.8221 5.16663 12.7332 8.94984 8.94996C12.733 5.16675 18.822 5.16675 31 5.16675C43.1778 5.16675 49.267 5.16675 53.05 8.94996C56.8333 12.7332 56.8333 18.8221 56.8333 31.0001C56.8333 43.1779 56.8333 49.2671 53.05 53.0501C49.267 56.8334 43.1778 56.8334 31 56.8334C18.822 56.8334 12.733 56.8334 8.94984 53.0501C5.16663 49.2671 5.16663 43.1779 5.16663 31.0001Z" stroke="white" stroke-width="6"/>
</svg>
