<svg width="54" height="62" viewBox="0 0 54 62" fill="none" xmlns="http://www.w3.org/2000/svg">
<g clip-path="url(#clip0_40_115)">
<path d="M4.89823 54.8462L0 0H53.8805L48.9823 54.8462L26.8805 61.0462" fill="#E34F26"/>
<path d="M27 56.2769L44.8009 51.3885L48.9823 4.41156H27" fill="#EF652A"/>
<path d="M27 24.8H18.0398L17.4425 17.8846H27V11.2077H10.0354L11.8274 31.5962H27V24.8ZM27 42.3269L19.354 40.3L18.8761 34.9346H12.1858L13.0221 45.5462L27 49.3615V42.3269Z" fill="#ECEDEE"/>
<path d="M27 31.5962H35.2434L34.4071 40.3L27 42.3269V49.3615L40.7389 45.5462L42.6504 24.8H27V31.5962ZM27 11.2077V17.8846H43.2478L43.8451 11.2077H27Z" fill="white"/>
</g>
<defs>
<clipPath id="clip0_40_115">
<rect width="54" height="62" fill="white"/>
</clipPath>
</defs>
</svg>
