<svg width="24" height="24" viewBox="0 0 24 24" fill="none" xmlns="http://www.w3.org/2000/svg">
<g clip-path="url(#clip0_43_211)">
<path d="M12.0039 0C6.99409 0 5.52887 0.00517035 5.24405 0.0287546C4.21595 0.114293 3.57618 0.276208 2.87927 0.62326C2.34209 0.890125 1.91848 1.19935 1.5004 1.63285C0.738995 2.42347 0.277559 3.39614 0.110473 4.55222C0.0292888 5.11353 0.00561386 5.228 0.0008063 8.09494C-0.00100788 9.05065 0.0008063 10.3082 0.0008063 11.9953C0.0008063 17.0025 0.00643061 18.4666 0.0303777 18.751C0.113467 19.7517 0.270302 20.3813 0.602569 21.0699C1.23753 22.3882 2.45031 23.3778 3.87897 23.7471C4.3736 23.8745 4.91994 23.9447 5.6213 23.9779C5.91856 23.9907 8.9475 24 11.9783 24C15.0091 24 18.04 23.9964 18.3297 23.9816C19.1419 23.9433 19.6135 23.88 20.1349 23.7452C21.5728 23.3742 22.7634 22.3993 23.4113 21.0625C23.737 20.3904 23.9022 19.7369 23.977 18.7884C23.9933 18.5816 24.0001 15.2847 24.0001 11.9922C24.0001 8.69906 23.9926 5.40824 23.9765 5.20142C23.9008 4.23764 23.7356 3.58953 23.3992 2.90468C23.1233 2.34391 22.8169 1.92511 22.372 1.49697C21.5782 0.738551 20.6073 0.276934 19.4503 0.11003C18.8897 0.0289362 18.7782 0.00498898 15.9097 0H12.0039Z" fill="url(#paint0_radial_43_211)"/>
<path d="M12.0039 0C6.99409 0 5.52887 0.00517035 5.24405 0.0287546C4.21595 0.114293 3.57618 0.276208 2.87927 0.62326C2.34209 0.890125 1.91848 1.19935 1.5004 1.63285C0.738995 2.42347 0.277559 3.39614 0.110473 4.55222C0.0292888 5.11353 0.00561386 5.228 0.0008063 8.09494C-0.00100788 9.05065 0.0008063 10.3082 0.0008063 11.9953C0.0008063 17.0025 0.00643061 18.4666 0.0303777 18.751C0.113467 19.7517 0.270302 20.3813 0.602569 21.0699C1.23753 22.3882 2.45031 23.3778 3.87897 23.7471C4.3736 23.8745 4.91994 23.9447 5.6213 23.9779C5.91856 23.9907 8.9475 24 11.9783 24C15.0091 24 18.04 23.9964 18.3297 23.9816C19.1419 23.9433 19.6135 23.88 20.1349 23.7452C21.5728 23.3742 22.7634 22.3993 23.4113 21.0625C23.737 20.3904 23.9022 19.7369 23.977 18.7884C23.9933 18.5816 24.0001 15.2847 24.0001 11.9922C24.0001 8.69906 23.9926 5.40824 23.9765 5.20142C23.9008 4.23764 23.7356 3.58953 23.3992 2.90468C23.1233 2.34391 22.8169 1.92511 22.372 1.49697C21.5782 0.738551 20.6073 0.276934 19.4503 0.11003C18.8897 0.0289362 18.7782 0.00498898 15.9097 0H12.0039Z" fill="url(#paint1_radial_43_211)"/>
<path d="M12.0039 0C6.99409 0 5.52887 0.00517035 5.24405 0.0287546C4.21595 0.114293 3.57618 0.276208 2.87927 0.62326C2.34209 0.890125 1.91848 1.19935 1.5004 1.63285C0.738995 2.42347 0.277559 3.39614 0.110473 4.55222C0.0292888 5.11353 0.00561386 5.228 0.0008063 8.09494C-0.00100788 9.05065 0.0008063 10.3082 0.0008063 11.9953C0.0008063 17.0025 0.00643061 18.4666 0.0303777 18.751C0.113467 19.7517 0.270302 20.3813 0.602569 21.0699C1.23753 22.3882 2.45031 23.3778 3.87897 23.7471C4.3736 23.8745 4.91994 23.9447 5.6213 23.9779C5.91856 23.9907 8.9475 24 11.9783 24C15.0091 24 18.04 23.9964 18.3297 23.9816C19.1419 23.9433 19.6135 23.88 20.1349 23.7452C21.5728 23.3742 22.7634 22.3993 23.4113 21.0625C23.737 20.3904 23.9022 19.7369 23.977 18.7884C23.9933 18.5816 24.0001 15.2847 24.0001 11.9922C24.0001 8.69906 23.9926 5.40824 23.9765 5.20142C23.9008 4.23764 23.7356 3.58953 23.3992 2.90468C23.1233 2.34391 22.8169 1.92511 22.372 1.49697C21.5782 0.738551 20.6073 0.276934 19.4503 0.11003C18.8897 0.0289362 18.7782 0.00498898 15.9097 0H12.0039Z" fill="url(#paint2_radial_43_211)"/>
<path d="M12.0039 0C6.99409 0 5.52887 0.00517035 5.24405 0.0287546C4.21595 0.114293 3.57618 0.276208 2.87927 0.62326C2.34209 0.890125 1.91848 1.19935 1.5004 1.63285C0.738995 2.42347 0.277559 3.39614 0.110473 4.55222C0.0292888 5.11353 0.00561386 5.228 0.0008063 8.09494C-0.00100788 9.05065 0.0008063 10.3082 0.0008063 11.9953C0.0008063 17.0025 0.00643061 18.4666 0.0303777 18.751C0.113467 19.7517 0.270302 20.3813 0.602569 21.0699C1.23753 22.3882 2.45031 23.3778 3.87897 23.7471C4.3736 23.8745 4.91994 23.9447 5.6213 23.9779C5.91856 23.9907 8.9475 24 11.9783 24C15.0091 24 18.04 23.9964 18.3297 23.9816C19.1419 23.9433 19.6135 23.88 20.1349 23.7452C21.5728 23.3742 22.7634 22.3993 23.4113 21.0625C23.737 20.3904 23.9022 19.7369 23.977 18.7884C23.9933 18.5816 24.0001 15.2847 24.0001 11.9922C24.0001 8.69906 23.9926 5.40824 23.9765 5.20142C23.9008 4.23764 23.7356 3.58953 23.3992 2.90468C23.1233 2.34391 22.8169 1.92511 22.372 1.49697C21.5782 0.738551 20.6073 0.276934 19.4503 0.11003C18.8897 0.0289362 18.7782 0.00498898 15.9097 0H12.0039Z" fill="url(#paint3_radial_43_211)"/>
<path d="M12.0048 3.08154C9.58142 3.08154 9.27719 3.09216 8.32538 3.13542C7.37548 3.17896 6.72709 3.32918 6.15962 3.54969C5.57273 3.77737 5.07492 4.08215 4.57893 4.57788C4.08257 5.07351 3.7776 5.57095 3.54902 6.1573C3.32769 6.72441 3.17711 7.37252 3.13448 8.32143C3.09185 9.2726 3.08069 9.57665 3.08069 11.9983C3.08069 14.42 3.09148 14.7229 3.13457 15.674C3.17829 16.6233 3.32869 17.2713 3.54911 17.8382C3.77724 18.4247 4.08211 18.9222 4.57829 19.4178C5.0741 19.9138 5.572 20.2192 6.15844 20.4469C6.72627 20.6674 7.37484 20.8177 8.32465 20.8612C9.27646 20.9045 9.58042 20.9151 12.0037 20.9151C14.4274 20.9151 14.7305 20.9045 15.6824 20.8612C16.6323 20.8176 17.2816 20.6674 17.8493 20.4469C18.436 20.2192 18.933 19.9138 19.4289 19.4178C19.9252 18.9222 20.2302 18.4247 20.4588 17.8384C20.6782 17.2713 20.8288 16.6231 20.8733 15.6743C20.9161 14.7231 20.9273 14.42 20.9273 11.9983C20.9273 9.57665 20.9161 9.27278 20.8734 8.32161C20.8288 7.37234 20.6782 6.72441 20.4589 6.15748C20.2302 5.57095 19.9252 5.07351 19.4289 4.57788C18.9325 4.08188 18.4361 3.77719 17.8487 3.54969C17.2799 3.32918 16.631 3.17887 15.681 3.13542C14.7292 3.09216 14.4262 3.08154 12.0021 3.08154H12.0048ZM11.2043 4.68845C11.4419 4.68809 11.707 4.68845 12.0048 4.68845C14.3874 4.68845 14.6698 4.69698 15.6107 4.7397C16.4806 4.77943 16.9529 4.92475 17.2674 5.04675C17.6838 5.20839 17.9807 5.4016 18.2928 5.71364C18.6051 6.02568 18.7985 6.32293 18.9606 6.7391C19.0827 7.05295 19.2283 7.52491 19.2679 8.39426C19.3106 9.33428 19.3199 9.61657 19.3199 11.9963C19.3199 14.3759 19.3107 14.6582 19.2679 15.5983C19.228 16.4676 19.0827 16.9395 18.9606 17.2534C18.7989 17.6695 18.6051 17.9659 18.2928 18.2777C17.9805 18.5898 17.684 18.783 17.2674 18.9446C16.9532 19.0672 16.4806 19.2122 15.6107 19.2519C14.67 19.2946 14.3874 19.3039 12.0048 19.3039C9.62206 19.3039 9.33978 19.2946 8.39903 19.2519C7.52896 19.2117 7.05682 19.0665 6.74206 18.9444C6.3257 18.7829 6.02818 18.5897 5.71587 18.2775C5.40356 17.9655 5.21026 17.669 5.04807 17.2527C4.92598 16.9388 4.78048 16.4669 4.74084 15.5975C4.69803 14.6575 4.6895 14.3751 4.6895 11.994C4.6895 9.61294 4.69803 9.33201 4.74084 8.392C4.78057 7.52264 4.92589 7.05078 5.04807 6.73656C5.2098 6.32039 5.40356 6.02314 5.71587 5.7111C6.02818 5.39897 6.32561 5.20585 6.74206 5.04376C7.05664 4.92121 7.52896 4.77625 8.39903 4.73634C9.22222 4.69915 9.54124 4.68809 11.2043 4.68618V4.68845ZM16.7681 6.169C16.1769 6.169 15.6973 6.64767 15.6973 7.23864C15.6973 7.82933 16.1769 8.30864 16.7681 8.30864C17.3592 8.30864 17.8388 7.82933 17.8388 7.23864C17.8388 6.64785 17.3592 6.16863 16.768 6.16863L16.7681 6.169ZM12.0048 7.41915C9.47402 7.41915 7.42228 9.46944 7.42228 11.9983C7.42228 14.5272 9.47411 16.5765 12.0049 16.5765C14.5357 16.5765 16.5866 14.5272 16.5866 11.9983C16.5866 9.46944 14.5354 7.41915 12.0046 7.41915H12.0048ZM12.0048 9.02605C13.6475 9.02605 14.9793 10.3567 14.9793 11.9983C14.9793 13.6398 13.6474 14.9706 12.0048 14.9706C10.3621 14.9706 9.03037 13.6398 9.03037 11.9983C9.03037 10.3567 10.362 9.02605 12.0048 9.02605Z" fill="white"/>
</g>
<defs>
<radialGradient id="paint0_radial_43_211" cx="0" cy="0" r="1" gradientTransform="matrix(-14.7591 4.16241 -2.99886 -10.6332 23.2252 11.249)" gradientUnits="userSpaceOnUse">
<stop stop-color="#FF005F"/>
<stop offset="1" stop-color="#FC01D8"/>
</radialGradient>
<radialGradient id="paint1_radial_43_211" cx="0" cy="0" r="1" gradientUnits="userSpaceOnUse" gradientTransform="translate(6.37488 25.8485) rotate(-90) scale(19.1575 20.3257)">
<stop stop-color="#FFCC00"/>
<stop offset="0.124" stop-color="#FFCC00"/>
<stop offset="0.567" stop-color="#FE4A05"/>
<stop offset="0.694" stop-color="#FF0F3F"/>
<stop offset="1" stop-color="#FE0657" stop-opacity="0"/>
</radialGradient>
<radialGradient id="paint2_radial_43_211" cx="0" cy="0" r="1" gradientTransform="matrix(3.97637 -6.85141 8.91975 5.17681 12.6064 23.6615)" gradientUnits="userSpaceOnUse">
<stop stop-color="#FFCC00"/>
<stop offset="1" stop-color="#FFCC00" stop-opacity="0"/>
</radialGradient>
<radialGradient id="paint3_radial_43_211" cx="0" cy="0" r="1" gradientTransform="matrix(-14.5969 4.11025 -1.4 -4.97326 3.25634 0.977197)" gradientUnits="userSpaceOnUse">
<stop stop-color="#780CFF"/>
<stop offset="1" stop-color="#820BFF" stop-opacity="0"/>
</radialGradient>
<clipPath id="clip0_43_211">
<rect width="24" height="24" fill="white"/>
</clipPath>
</defs>
</svg>
