<svg width="62" height="62" viewBox="0 0 62 62" fill="none" xmlns="http://www.w3.org/2000/svg">
<g clip-path="url(#clip0_40_159)">
<path d="M0 0H62V62H0V0Z" fill="#F0DB4F"/>
<path d="M56.9257 47.2131C56.4719 44.3842 54.6272 42.0091 49.1639 39.7931C47.2662 38.9209 45.1504 38.2962 44.5198 36.8581C44.2958 36.0213 44.2664 35.5498 44.4078 35.0429C44.8145 33.3986 46.777 32.8859 48.3329 33.3574C49.3348 33.6933 50.2837 34.4654 50.8554 35.6971C53.531 33.9645 53.5251 33.9762 55.3934 32.7858C54.7097 31.7249 54.3443 31.2357 53.8964 30.782C52.2875 28.9844 50.0951 28.0591 46.5884 28.1299C45.9814 28.2065 45.3685 28.2889 44.7614 28.3656C43.0111 28.8076 41.3432 29.727 40.3649 30.9588C37.4299 34.2886 38.2668 40.1173 41.8382 42.516C45.3567 45.1563 50.5253 45.7574 51.1854 48.2268C51.8278 51.2502 48.9636 52.2285 46.1169 51.8808C44.0188 51.4447 42.852 50.378 41.5907 48.439C39.2687 49.7827 39.2687 49.7827 36.8818 51.1559C37.4476 52.3936 38.0428 52.9534 38.9917 54.0261C43.4826 58.5818 54.7215 58.3578 56.7372 51.4624C56.8196 51.2266 57.3619 49.6471 56.9257 47.2131ZM33.7052 28.4952H27.9059C27.9059 33.5047 27.8824 38.4789 27.8824 43.4884C27.8824 46.6768 28.0474 49.6 27.5288 50.4958C26.6801 52.2579 24.4818 52.0399 23.4799 51.698C22.4604 51.1971 21.9417 50.4839 21.3406 49.4762C21.1756 49.1874 21.0518 48.9635 21.0105 48.9458C19.437 49.9064 17.8692 50.8729 16.2957 51.8336C17.0796 53.4425 18.2346 54.8393 19.7139 55.7469C21.924 57.0729 24.8943 57.4796 28.0003 56.7664C30.0218 56.1771 31.7662 54.9572 32.6797 53.1007C33.9998 50.6667 33.7169 47.7199 33.7052 44.4608C33.7346 39.1448 33.7052 33.8289 33.7052 28.4952Z" fill="#323330"/>
</g>
<defs>
<clipPath id="clip0_40_159">
<rect width="62" height="62" fill="white"/>
</clipPath>
</defs>
</svg>
