<svg width="62" height="62" viewBox="0 0 62 62" fill="none" xmlns="http://www.w3.org/2000/svg">
<path d="M57.9119 60.0625H4.09301C2.90629 60.0625 1.94238 59.0986 1.94238 57.9119V4.08812C1.94238 2.90141 2.90629 1.9375 4.09301 1.9375H57.9119C59.0986 1.9375 60.0625 2.90141 60.0625 4.08812V57.9119C60.0625 59.0986 59.0986 60.0625 57.9119 60.0625Z" fill="#E0E0E0"/>
<path d="M19.2055 8.67516H2.8627C2.61861 8.67516 2.38453 8.57819 2.21194 8.4056C2.03934 8.23301 1.94238 7.99893 1.94238 7.75484V3.52625C1.94238 3.01766 2.3541 2.60594 2.8627 2.60594H19.2055C19.7141 2.60594 20.1258 3.01766 20.1258 3.52625V7.75C20.1258 8.25859 19.7141 8.67516 19.2055 8.67516Z" fill="#751C00"/>
<path d="M39.1714 8.67516H22.8334C22.5893 8.67516 22.3552 8.57819 22.1826 8.4056C22.01 8.23301 21.9131 7.99893 21.9131 7.75484V3.52625C21.9131 3.01766 22.3248 2.60594 22.8334 2.60594H39.1762C39.6848 2.60594 40.0965 3.01766 40.0965 3.52625V7.75C40.0949 7.99486 39.9969 8.22922 39.8237 8.40236C39.6506 8.5755 39.4162 8.67351 39.1714 8.67516Z" fill="#751C00"/>
<path d="M59.1423 8.67516H42.7995C42.5554 8.67516 42.3213 8.57819 42.1487 8.4056C41.9761 8.23301 41.8792 7.99893 41.8792 7.75484V3.52625C41.8792 3.01766 42.2909 2.60594 42.7995 2.60594H59.1423C59.6509 2.60594 60.0626 3.01766 60.0626 3.52625V7.75C60.0626 8.25859 59.6509 8.67516 59.1423 8.67516Z" fill="#751C00"/>
<path d="M19.2055 25.8027H2.8627C2.61861 25.8027 2.38453 25.7057 2.21194 25.5331C2.03934 25.3605 1.94238 25.1264 1.94238 24.8823V20.6586C1.94238 20.15 2.3541 19.7383 2.8627 19.7383H19.2055C19.7141 19.7383 20.1258 20.15 20.1258 20.6586V24.8823C20.1258 25.1264 20.0289 25.3605 19.8563 25.5331C19.6837 25.7057 19.4496 25.8027 19.2055 25.8027Z" fill="#751C00"/>
<path d="M39.1714 25.8027H22.8334C22.5893 25.8027 22.3552 25.7057 22.1826 25.5331C22.01 25.3605 21.9131 25.1264 21.9131 24.8823V20.6586C21.9131 20.15 22.3248 19.7383 22.8334 19.7383H39.1762C39.6848 19.7383 40.0965 20.15 40.0965 20.6586V24.8823C40.0917 25.3909 39.68 25.8027 39.1714 25.8027Z" fill="#751C00"/>
<path d="M59.1423 25.8027H42.7995C42.5554 25.8027 42.3213 25.7057 42.1487 25.5331C41.9761 25.3605 41.8792 25.1264 41.8792 24.8823V20.6586C41.8792 20.15 42.2909 19.7383 42.7995 19.7383H59.1423C59.6509 19.7383 60.0626 20.15 60.0626 20.6586V24.8823C60.0626 25.1264 59.9656 25.3605 59.793 25.5331C59.6204 25.7057 59.3864 25.8027 59.1423 25.8027Z" fill="#751C00"/>
<path d="M19.2055 42.935H2.8627C2.61861 42.935 2.38453 42.838 2.21194 42.6654C2.03934 42.4928 1.94238 42.2588 1.94238 42.0147V37.7909C1.94238 37.2823 2.3541 36.8706 2.8627 36.8706H19.2055C19.7141 36.8706 20.1258 37.2823 20.1258 37.7909V42.0147C20.1258 42.5184 19.7141 42.935 19.2055 42.935Z" fill="#751C00"/>
<path d="M39.1714 42.935H22.8334C22.5893 42.935 22.3552 42.838 22.1826 42.6654C22.01 42.4928 21.9131 42.2588 21.9131 42.0147V37.7909C21.9131 37.2823 22.3248 36.8706 22.8334 36.8706H39.1762C39.6848 36.8706 40.0965 37.2823 40.0965 37.7909V42.0147C40.094 42.2588 39.9955 42.4922 39.8225 42.6643C39.6494 42.8365 39.4155 42.9337 39.1714 42.935Z" fill="#751C00"/>
<path d="M59.1423 42.935H42.7995C42.5554 42.935 42.3213 42.838 42.1487 42.6654C41.9761 42.4928 41.8792 42.2588 41.8792 42.0147V37.7909C41.8792 37.2823 42.2909 36.8706 42.7995 36.8706H59.1423C59.6509 36.8706 60.0626 37.2823 60.0626 37.7909V42.0147C60.0626 42.5184 59.6509 42.935 59.1423 42.935Z" fill="#751C00"/>
<path d="M19.2055 60.0625H2.8627C2.61861 60.0625 2.38453 59.9655 2.21194 59.7929C2.03934 59.6204 1.94238 59.3863 1.94238 59.1422V54.9184C1.94238 54.4098 2.3541 53.9981 2.8627 53.9981H19.2055C19.7141 53.9981 20.1258 54.4098 20.1258 54.9184V59.1422C20.1258 59.3863 20.0289 59.6204 19.8563 59.7929C19.6837 59.9655 19.4496 60.0625 19.2055 60.0625Z" fill="#751C00"/>
<path d="M39.1714 60.0625H22.8334C22.5893 60.0625 22.3552 59.9655 22.1826 59.7929C22.01 59.6204 21.9131 59.3863 21.9131 59.1422V54.9184C21.9131 54.4098 22.3248 53.9981 22.8334 53.9981H39.1762C39.6848 53.9981 40.0965 54.4098 40.0965 54.9184V59.1422C40.0917 59.6508 39.68 60.0625 39.1714 60.0625Z" fill="#751C00"/>
<path d="M59.1423 60.0625H42.7995C42.5554 60.0625 42.3213 59.9655 42.1487 59.7929C41.9761 59.6204 41.8792 59.3863 41.8792 59.1422V54.9184C41.8792 54.4098 42.2909 53.9981 42.7995 53.9981H59.1423C59.6509 53.9981 60.0626 54.4098 60.0626 54.9184V59.1422C60.0626 59.3863 59.9656 59.6204 59.793 59.7929C59.6204 59.9655 59.3864 60.0625 59.1423 60.0625Z" fill="#751C00"/>
<path d="M9.455 11.1697H1.9375V17.2389H9.455C9.69908 17.2389 9.93317 17.1419 10.1058 16.9694C10.2784 16.7968 10.3753 16.5627 10.3753 16.3186V12.0948C10.3753 11.5814 9.96359 11.1697 9.455 11.1697Z" fill="#751C00"/>
<path d="M29.2658 17.2389H12.9279C12.6838 17.2389 12.4497 17.1419 12.2771 16.9694C12.1045 16.7968 12.0076 16.5627 12.0076 16.3186V12.0948C12.0076 11.5862 12.4193 11.1745 12.9279 11.1745H29.2707C29.7793 11.1745 30.191 11.5862 30.191 12.0948V16.3186C30.1862 16.8272 29.7744 17.2389 29.2658 17.2389Z" fill="#751C00"/>
<path d="M49.0769 17.2389H32.7389C32.6181 17.2389 32.4984 17.2151 32.3867 17.1688C32.2751 17.1226 32.1736 17.0548 32.0882 16.9694C32.0027 16.8839 31.9349 16.7824 31.8887 16.6708C31.8424 16.5591 31.8186 16.4394 31.8186 16.3186V12.0948C31.8186 11.5862 32.2303 11.1745 32.7389 11.1745H49.0817C49.5903 11.1745 50.002 11.5862 50.002 12.0948V16.3186C49.9972 16.8272 49.5855 17.2389 49.0769 17.2389Z" fill="#751C00"/>
<path d="M52.55 11.1697C52.3059 11.1697 52.0718 11.2666 51.8992 11.4392C51.7266 11.6118 51.6296 11.8459 51.6296 12.09V16.3137C51.6296 16.8223 52.0414 17.2341 52.55 17.2341H60.0626V11.1697H52.55Z" fill="#751C00"/>
<path d="M9.455 28.302H1.9375V34.3713H9.455C9.69908 34.3713 9.93317 34.2743 10.1058 34.1017C10.2784 33.9291 10.3753 33.695 10.3753 33.4509V29.2272C10.3753 28.7138 9.96359 28.302 9.455 28.302Z" fill="#751C00"/>
<path d="M29.2658 34.3664H12.9279C12.6838 34.3664 12.4497 34.2694 12.2771 34.0969C12.1045 33.9243 12.0076 33.6902 12.0076 33.4461V29.2223C12.0076 28.7138 12.4193 28.302 12.9279 28.302H29.2707C29.7793 28.302 30.191 28.7138 30.191 29.2223V33.4461C30.1862 33.9547 29.7744 34.3664 29.2658 34.3664Z" fill="#751C00"/>
<path d="M49.0769 34.3664H32.7389C32.6181 34.3664 32.4984 34.3426 32.3867 34.2964C32.2751 34.2501 32.1736 34.1823 32.0882 34.0969C32.0027 34.0114 31.9349 33.9099 31.8887 33.7983C31.8424 33.6866 31.8186 33.567 31.8186 33.4461V29.2223C31.8186 28.7138 32.2303 28.302 32.7389 28.302H49.0817C49.5903 28.302 50.002 28.7138 50.002 29.2223V33.4461C49.9972 33.9547 49.5855 34.3664 49.0769 34.3664Z" fill="#751C00"/>
<path d="M52.55 28.302C52.3059 28.302 52.0718 28.399 51.8992 28.5716C51.7266 28.7442 51.6296 28.9783 51.6296 29.2223V33.4461C51.6296 33.9547 52.0414 34.3664 52.55 34.3664H60.0626V28.302H52.55Z" fill="#751C00"/>
<path d="M9.455 45.4295H1.9375V51.4987H9.455C9.57586 51.4987 9.69553 51.4749 9.80719 51.4287C9.91885 51.3824 10.0203 51.3147 10.1058 51.2292C10.1912 51.1437 10.259 51.0423 10.3053 50.9306C10.3515 50.819 10.3753 50.6993 10.3753 50.5784V46.3547C10.3753 45.8412 9.96359 45.4295 9.455 45.4295Z" fill="#751C00"/>
<path d="M29.2658 51.4987H12.9279C12.6838 51.4987 12.4497 51.4018 12.2771 51.2292C12.1045 51.0566 12.0076 50.8225 12.0076 50.5784V46.3547C12.0076 45.8461 12.4193 45.4344 12.9279 45.4344H29.2707C29.7793 45.4344 30.191 45.8461 30.191 46.3547V50.5784C30.1862 51.087 29.7744 51.4987 29.2658 51.4987Z" fill="#751C00"/>
<path d="M49.0769 51.4987H32.7389C32.6181 51.4987 32.4984 51.4749 32.3867 51.4287C32.2751 51.3824 32.1736 51.3147 32.0882 51.2292C32.0027 51.1437 31.9349 51.0423 31.8887 50.9306C31.8424 50.819 31.8186 50.6993 31.8186 50.5784V46.3547C31.8186 45.8461 32.2303 45.4344 32.7389 45.4344H49.0817C49.5903 45.4344 50.002 45.8461 50.002 46.3547V50.5784C49.9972 51.087 49.5855 51.4987 49.0769 51.4987Z" fill="#751C00"/>
<path d="M52.55 45.4295C52.3059 45.4295 52.0718 45.5265 51.8992 45.6991C51.7266 45.8717 51.6296 46.1058 51.6296 46.3498V50.5736C51.6296 51.0822 52.0414 51.4939 52.55 51.4939H60.0626V45.4295H52.55Z" fill="#751C00"/>
<path d="M19.2055 8.00672H2.8627C2.61861 8.00672 2.38453 7.90976 2.21194 7.73717C2.03934 7.56457 1.94238 7.33049 1.94238 7.08641V2.85781C1.94238 2.34922 2.3541 1.9375 2.8627 1.9375H19.2055C19.7141 1.9375 20.1258 2.34922 20.1258 2.85781V7.08156C20.1258 7.59016 19.7141 8.00672 19.2055 8.00672Z" fill="#E04E2C"/>
<path d="M39.1714 8.00672H22.8334C22.5893 8.00672 22.3552 7.90976 22.1826 7.73717C22.01 7.56457 21.9131 7.33049 21.9131 7.08641V2.85781C21.9131 2.34922 22.3248 1.9375 22.8334 1.9375H39.1762C39.6848 1.9375 40.0965 2.34922 40.0965 2.85781V7.08156C40.0949 7.32642 39.9969 7.56078 39.8237 7.73392C39.6506 7.90707 39.4162 8.00507 39.1714 8.00672Z" fill="#BF360C"/>
<path d="M59.1423 8.00672H42.7995C42.5554 8.00672 42.3213 7.90976 42.1487 7.73717C41.9761 7.56457 41.8792 7.33049 41.8792 7.08641V2.85781C41.8792 2.34922 42.2909 1.9375 42.7995 1.9375H59.1423C59.6509 1.9375 60.0626 2.34922 60.0626 2.85781V7.08156C60.0626 7.59016 59.6509 8.00672 59.1423 8.00672Z" fill="#E04E2C"/>
<path d="M19.2055 25.1342H2.8627C2.61861 25.1342 2.38453 25.0373 2.21194 24.8647C2.03934 24.6921 1.94238 24.458 1.94238 24.2139V19.9902C1.94238 19.4816 2.3541 19.0698 2.8627 19.0698H19.2055C19.7141 19.0698 20.1258 19.4816 20.1258 19.9902V24.2139C20.1258 24.458 20.0289 24.6921 19.8563 24.8647C19.6837 25.0373 19.4496 25.1342 19.2055 25.1342Z" fill="#E04E2C"/>
<path d="M39.1714 25.1342H22.8334C22.5893 25.1342 22.3552 25.0373 22.1826 24.8647C22.01 24.6921 21.9131 24.458 21.9131 24.2139V19.9902C21.9131 19.4816 22.3248 19.0698 22.8334 19.0698H39.1762C39.6848 19.0698 40.0965 19.4816 40.0965 19.9902V24.2139C40.0917 24.7225 39.68 25.1342 39.1714 25.1342Z" fill="#E04E2C"/>
<path d="M59.1423 25.1342H42.7995C42.5554 25.1342 42.3213 25.0373 42.1487 24.8647C41.9761 24.6921 41.8792 24.458 41.8792 24.2139V19.9902C41.8792 19.4816 42.2909 19.0698 42.7995 19.0698H59.1423C59.6509 19.0698 60.0626 19.4816 60.0626 19.9902V24.2139C60.0626 24.458 59.9656 24.6921 59.793 24.8647C59.6204 25.0373 59.3864 25.1342 59.1423 25.1342Z" fill="#BF360C"/>
<path d="M19.2055 42.2666H2.8627C2.61861 42.2666 2.38453 42.1696 2.21194 41.997C2.03934 41.8244 1.94238 41.5903 1.94238 41.3463V37.1225C1.94238 36.6139 2.3541 36.2022 2.8627 36.2022H19.2055C19.7141 36.2022 20.1258 36.6139 20.1258 37.1225V41.3463C20.1258 41.85 19.7141 42.2666 19.2055 42.2666Z" fill="#E04E2C"/>
<path d="M39.1714 42.2666H22.8334C22.5893 42.2666 22.3552 42.1696 22.1826 41.997C22.01 41.8244 21.9131 41.5903 21.9131 41.3463V37.1225C21.9131 36.6139 22.3248 36.2022 22.8334 36.2022H39.1762C39.6848 36.2022 40.0965 36.6139 40.0965 37.1225V41.3463C40.094 41.5904 39.9955 41.8237 39.8225 41.9959C39.6494 42.1681 39.4155 42.2653 39.1714 42.2666Z" fill="#BF360C"/>
<path d="M59.1423 42.2666H42.7995C42.5554 42.2666 42.3213 42.1696 42.1487 41.997C41.9761 41.8244 41.8792 41.5903 41.8792 41.3463V37.1225C41.8792 36.6139 42.2909 36.2022 42.7995 36.2022H59.1423C59.6509 36.2022 60.0626 36.6139 60.0626 37.1225V41.3463C60.0626 41.85 59.6509 42.2666 59.1423 42.2666Z" fill="#E04E2C"/>
<path d="M19.2055 59.3941H2.8627C2.74184 59.3941 2.62216 59.3703 2.51051 59.324C2.39885 59.2778 2.29739 59.21 2.21194 59.1245C2.12648 59.0391 2.05869 58.9376 2.01244 58.8259C1.96619 58.7143 1.94238 58.5946 1.94238 58.4738V54.25C1.94238 53.7414 2.3541 53.3297 2.8627 53.3297H19.2055C19.7141 53.3297 20.1258 53.7414 20.1258 54.25V58.4738C20.1258 58.5946 20.102 58.7143 20.0558 58.8259C20.0095 58.9376 19.9417 59.0391 19.8563 59.1245C19.7708 59.21 19.6694 59.2778 19.5577 59.324C19.446 59.3703 19.3264 59.3941 19.2055 59.3941Z" fill="#E04E2C"/>
<path d="M39.1714 59.3941H22.8334C22.7125 59.3941 22.5929 59.3703 22.4812 59.324C22.3696 59.2778 22.2681 59.21 22.1826 59.1245C22.0972 59.0391 22.0294 58.9376 21.9831 58.8259C21.9369 58.7143 21.9131 58.5946 21.9131 58.4738V54.25C21.9131 53.7414 22.3248 53.3297 22.8334 53.3297H39.1762C39.6848 53.3297 40.0965 53.7414 40.0965 54.25V58.4738C40.0917 58.9823 39.68 59.3941 39.1714 59.3941Z" fill="#E04E2C"/>
<path d="M59.1423 59.3941H42.7995C42.6786 59.3941 42.5589 59.3703 42.4473 59.324C42.3356 59.2778 42.2342 59.21 42.1487 59.1245C42.0632 59.0391 41.9955 58.9376 41.9492 58.8259C41.903 58.7143 41.8792 58.5946 41.8792 58.4738V54.25C41.8792 53.7414 42.2909 53.3297 42.7995 53.3297H59.1423C59.6509 53.3297 60.0626 53.7414 60.0626 54.25V58.4738C60.0626 58.5946 60.0388 58.7143 59.9925 58.8259C59.9463 58.9376 59.8785 59.0391 59.793 59.1245C59.7076 59.21 59.6061 59.2778 59.4945 59.324C59.3828 59.3703 59.2631 59.3941 59.1423 59.3941Z" fill="#BF360C"/>
<path d="M9.455 10.5013H1.9375V16.5705H9.455C9.69908 16.5705 9.93317 16.4735 10.1058 16.3009C10.2784 16.1283 10.3753 15.8942 10.3753 15.6502V11.4264C10.3753 10.913 9.96359 10.5013 9.455 10.5013Z" fill="#BF360C"/>
<path d="M29.2658 16.5705H12.9279C12.6838 16.5705 12.4497 16.4735 12.2771 16.3009C12.1045 16.1283 12.0076 15.8942 12.0076 15.6502V11.4264C12.0076 10.9178 12.4193 10.5061 12.9279 10.5061H29.2707C29.7793 10.5061 30.191 10.9178 30.191 11.4264V15.6502C30.1862 16.1588 29.7744 16.5705 29.2658 16.5705Z" fill="#E04E2C"/>
<path d="M49.0769 16.5705H32.7389C32.6181 16.5705 32.4984 16.5467 32.3867 16.5004C32.2751 16.4542 32.1736 16.3864 32.0882 16.3009C32.0027 16.2155 31.9349 16.114 31.8887 16.0023C31.8424 15.8907 31.8186 15.771 31.8186 15.6502V11.4264C31.8186 10.9178 32.2303 10.5061 32.7389 10.5061H49.0817C49.5903 10.5061 50.002 10.9178 50.002 11.4264V15.6502C49.9972 16.1588 49.5855 16.5705 49.0769 16.5705Z" fill="#FF7043"/>
<path d="M52.55 10.5013C52.3059 10.5013 52.0718 10.5982 51.8992 10.7708C51.7266 10.9434 51.6296 11.1775 51.6296 11.4216V15.6453C51.6296 16.1539 52.0414 16.5656 52.55 16.5656H60.0626V10.5013H52.55Z" fill="#E04E2C"/>
<path d="M9.455 27.6336H1.9375V33.7028H9.455C9.57586 33.7028 9.69553 33.679 9.80719 33.6328C9.91885 33.5865 10.0203 33.5187 10.1058 33.4333C10.1912 33.3478 10.259 33.2463 10.3053 33.1347C10.3515 33.023 10.3753 32.9034 10.3753 32.7825V28.5587C10.3753 28.0453 9.96359 27.6336 9.455 27.6336Z" fill="#E04E2C"/>
<path d="M29.2658 33.698H12.9279C12.6838 33.698 12.4497 33.601 12.2771 33.4284C12.1045 33.2558 12.0076 33.0217 12.0076 32.7777V28.5539C12.0076 28.0453 12.4193 27.6336 12.9279 27.6336H29.2707C29.7793 27.6336 30.191 28.0453 30.191 28.5539V32.7777C30.1862 33.2862 29.7744 33.698 29.2658 33.698Z" fill="#FF7043"/>
<path d="M49.0769 33.698H32.7389C32.6181 33.698 32.4984 33.6742 32.3867 33.6279C32.2751 33.5817 32.1736 33.5139 32.0882 33.4284C32.0027 33.343 31.9349 33.2415 31.8887 33.1298C31.8424 33.0182 31.8186 32.8985 31.8186 32.7777V28.5539C31.8186 28.0453 32.2303 27.6336 32.7389 27.6336H49.0817C49.5903 27.6336 50.002 28.0453 50.002 28.5539V32.7777C49.9972 33.2862 49.5855 33.698 49.0769 33.698Z" fill="#E04E2C"/>
<path d="M52.55 27.6336C52.3059 27.6336 52.0718 27.7306 51.8992 27.9031C51.7266 28.0757 51.6296 28.3098 51.6296 28.5539V32.7777C51.6296 33.2862 52.0414 33.698 52.55 33.698H60.0626V27.6336H52.55Z" fill="#E04E2C"/>
<path d="M9.455 44.7611H1.9375V50.8303H9.455C9.57586 50.8303 9.69553 50.8065 9.80719 50.7603C9.91885 50.714 10.0203 50.6462 10.1058 50.5608C10.1912 50.4753 10.259 50.3738 10.3053 50.2622C10.3515 50.1505 10.3753 50.0309 10.3753 49.91V45.6862C10.3753 45.1728 9.96359 44.7611 9.455 44.7611Z" fill="#BF360C"/>
<path d="M29.2658 50.8303H12.9279C12.807 50.8303 12.6873 50.8065 12.5757 50.7603C12.464 50.714 12.3626 50.6462 12.2771 50.5608C12.1917 50.4753 12.1239 50.3738 12.0776 50.2622C12.0314 50.1505 12.0076 50.0309 12.0076 49.91V45.6863C12.0076 45.1777 12.4193 44.7659 12.9279 44.7659H29.2707C29.7793 44.7659 30.191 45.1777 30.191 45.6863V49.91C30.1862 50.4186 29.7744 50.8303 29.2658 50.8303Z" fill="#E04E2C"/>
<path d="M49.0769 50.8303H32.7389C32.6181 50.8303 32.4984 50.8065 32.3867 50.7603C32.2751 50.714 32.1736 50.6462 32.0882 50.5608C32.0027 50.4753 31.9349 50.3738 31.8887 50.2622C31.8424 50.1505 31.8186 50.0309 31.8186 49.91V45.6863C31.8186 45.1777 32.2303 44.7659 32.7389 44.7659H49.0817C49.5903 44.7659 50.002 45.1777 50.002 45.6863V49.91C49.9972 50.4186 49.5855 50.8303 49.0769 50.8303Z" fill="#E04E2C"/>
<path d="M52.55 44.7611C52.3059 44.7611 52.0718 44.8581 51.8992 45.0306C51.7266 45.2032 51.6296 45.4373 51.6296 45.6814V49.9052C51.6296 50.4137 52.0414 50.8255 52.55 50.8255H60.0626V44.7611H52.55Z" fill="#FF7043"/>
</svg>
