<svg width="62" height="62" viewBox="0 0 62 62" fill="none" xmlns="http://www.w3.org/2000/svg">
<g opacity="0.62" clip-path="url(#clip0_53_636)">
<path d="M51.6653 13.4366V58.9001C51.6653 60.0368 50.8386 60.9667 49.9087 60.9667H52.6985C53.8351 60.9667 54.765 60.0368 54.765 58.9001V14.7798C54.765 14.0566 54.1451 13.4366 53.4218 13.4366H51.6653Z" fill="#FFE100"/>
<path d="M51.6652 13.4366H41.3327C40.196 13.4366 39.2661 12.5067 39.2661 11.3701V1.03738L51.6652 13.4366Z" fill="#FECC00"/>
<path d="M48.5654 13.4366H41.0226C40.0927 13.4366 39.266 12.5067 39.266 11.3701V1.03738H13.1245C12.1946 1.03738 11.3679 1.96731 11.3679 3.10392V58.9001C11.3679 60.0367 12.1946 60.9667 13.1245 60.9667H46.8088C47.7387 60.9667 48.5654 60.0367 48.5654 58.9001V13.4366Z" fill="#FFE100"/>
<path d="M48.5654 13.4366V58.9001C48.5654 60.0368 47.7388 60.9667 46.8088 60.9667H49.5986C50.7352 60.9667 51.6652 60.0368 51.6652 58.9001V13.4366H48.5654Z" fill="#FFA800"/>
<path d="M11.3679 58.9001V3.10392C11.3679 1.96731 12.1946 1.03738 13.1245 1.03738H10.3346C9.19799 1.03738 8.26807 1.96731 8.26807 3.10392V58.9001C8.26807 60.0367 9.19799 60.9667 10.3346 60.9667H13.1244C12.1946 60.9667 11.3679 60.0367 11.3679 58.9001Z" fill="white"/>
<path d="M51.6652 14.4699H41.3327C39.5761 14.4699 38.2329 13.1267 38.2329 11.3701V1.03744C38.2329 0.624184 38.4396 0.210802 38.8529 0.107518C39.2661 -0.099173 39.6795 0.004234 39.9895 0.314209L52.3886 12.7133C52.6986 13.0233 52.8018 13.4366 52.5953 13.8499C52.4919 14.2633 52.0786 14.4699 51.6652 14.4699ZM40.2993 3.51736V11.3701C40.2993 11.9901 40.7126 12.4033 41.3325 12.4033H49.1853L40.2993 3.51736Z" fill="black"/>
<path d="M49.5986 62H10.3346C8.57805 62 7.23486 60.6568 7.23486 58.9002V26.8691C7.23486 26.2491 7.64812 25.8359 8.26807 25.8359C8.88802 25.8359 9.30128 26.2491 9.30128 26.8691V58.9001C9.30128 59.5201 9.71454 59.9333 10.3345 59.9333H49.5985C50.2184 59.9333 50.6317 59.5201 50.6317 58.9001V14.4698H41.3323C39.5758 14.4698 38.2326 13.1267 38.2326 11.3701V2.07072H10.3346C9.71466 2.07072 9.3014 2.58739 9.3014 3.10393V18.6029C9.3014 19.2229 8.88814 19.6361 8.26819 19.6361C7.64825 19.6361 7.23499 19.2229 7.23499 18.6029V3.10393C7.23499 1.34736 8.57817 0.00418091 10.3347 0.00418091H39.266C39.886 0.00418091 40.2992 0.41744 40.2992 1.03739V11.37C40.2992 11.9899 40.7125 12.4032 41.3325 12.4032H51.665C52.285 12.4032 52.6982 12.8164 52.6982 13.4364V58.9001C52.6985 60.6567 51.3552 62 49.5986 62Z" fill="black"/>
<path d="M9.30152 22.736C9.30152 22.116 8.88827 21.7028 8.26832 21.7028C7.64837 21.7028 7.23511 22.116 7.23511 22.736C7.23511 23.3559 7.64837 23.7692 8.26832 23.7692C8.88827 23.7692 9.30152 23.3559 9.30152 22.736Z" fill="black"/>
<path d="M33.0665 14.4698H14.4678C13.8478 14.4698 13.4346 14.0566 13.4346 13.4366C13.4346 12.8167 13.8478 12.4034 14.4678 12.4034H33.0665C33.6865 12.4034 34.0997 12.8167 34.0997 13.4366C34.0998 14.0566 33.6865 14.4698 33.0665 14.4698Z" fill="black"/>
<path d="M45.4656 20.6694H14.4678C13.8478 20.6694 13.4346 20.2562 13.4346 19.6362C13.4346 19.0163 13.8478 18.603 14.4678 18.603H45.4656C46.0856 18.603 46.4988 19.0163 46.4988 19.6362C46.499 20.2561 46.0857 20.6694 45.4656 20.6694Z" fill="black"/>
<path d="M45.4656 26.8691H14.4678C13.8478 26.8691 13.4346 26.4558 13.4346 25.8359C13.4346 25.2159 13.8478 24.8027 14.4678 24.8027H45.4656C46.0856 24.8027 46.4988 25.2159 46.4988 25.8359C46.499 26.4557 46.0857 26.8691 45.4656 26.8691Z" fill="black"/>
<path d="M45.4656 33.0686H14.4678C13.8478 33.0686 13.4346 32.6553 13.4346 32.0354C13.4346 31.4154 13.8478 31.0022 14.4678 31.0022H45.4656C46.0856 31.0022 46.4988 31.4154 46.4988 32.0354C46.4988 32.6553 46.0857 33.0686 45.4656 33.0686Z" fill="black"/>
<path d="M45.4656 39.2682H14.4678C13.8478 39.2682 13.4346 38.8549 13.4346 38.235C13.4346 37.615 13.8478 37.2018 14.4678 37.2018H45.4656C46.0856 37.2018 46.4988 37.615 46.4988 38.235C46.4988 38.8549 46.0857 39.2682 45.4656 39.2682Z" fill="black"/>
<path d="M45.4656 45.4677H14.4678C13.8478 45.4677 13.4346 45.0544 13.4346 44.4345C13.4346 43.8145 13.8478 43.4012 14.4678 43.4012H45.4656C46.0856 43.4012 46.4988 43.8145 46.4988 44.4345C46.499 45.0544 46.0857 45.4677 45.4656 45.4677Z" fill="black"/>
<path d="M45.4656 51.6673H14.4678C13.8478 51.6673 13.4346 51.254 13.4346 50.6341C13.4346 50.0141 13.8478 49.6009 14.4678 49.6009H45.4656C46.0856 49.6009 46.4988 50.0141 46.4988 50.6341C46.499 51.254 46.0857 51.6673 45.4656 51.6673Z" fill="black"/>
</g>
<defs>
<clipPath id="clip0_53_636">
<rect width="62" height="62" fill="white"/>
</clipPath>
</defs>
</svg>
