<svg width="62" height="62" viewBox="0 0 62 62" fill="none" xmlns="http://www.w3.org/2000/svg">
<g clip-path="url(#clip0_54_688)">
<path d="M20.8855 34.5343C15.6066 26.2493 16.583 15.1297 23.8164 7.89625C32.1815 -0.467125 45.7421 -0.467125 54.1055 7.89625C62.4689 16.2596 62.4689 29.8203 54.1055 38.1853C46.8721 45.4188 35.7525 46.3952 27.4675 41.1162C26.1726 40.2933 24.9464 39.3152 23.8164 38.1853C22.6865 37.0554 21.7085 35.8291 20.8855 34.5343ZM48.8249 32.9047C54.2737 27.456 54.2737 18.624 48.8249 13.1768C43.3778 7.72807 34.5458 7.72807 29.097 13.1768C23.6499 18.624 23.6499 27.456 29.097 32.9047C34.5458 38.3519 43.3778 38.3519 48.8249 32.9047Z" fill="#F2D59F"/>
<path d="M48.825 13.1768C54.2737 18.624 54.2737 27.456 48.825 32.9047C43.3778 38.3519 34.5458 38.3519 29.0971 32.9047C23.6499 27.456 23.6499 18.624 29.0971 13.1768C34.5458 7.72808 43.3778 7.72808 48.825 13.1768Z" fill="#8ECAC1"/>
<path d="M27.4674 41.1163L21.6807 46.9014L15.1003 40.3211L20.8855 34.5343C21.7084 35.8291 22.6865 37.0554 23.8164 38.1853C24.9463 39.3152 26.1726 40.2933 27.4674 41.1163Z" fill="#E6B263"/>
<path d="M21.6807 46.9014L9.57655 59.0056C7.7592 60.8229 4.81357 60.8229 2.99623 59.0056C2.08837 58.0977 1.63281 56.9057 1.63281 55.7154C1.63281 54.5251 2.08837 53.3331 2.99623 52.4252L15.1004 40.321L21.6807 46.9014Z" fill="#FF7124"/>
<path d="M38.9833 46.089C34.6068 46.089 30.2801 44.8445 26.5902 42.4934C25.1803 41.5973 23.858 40.5359 22.662 39.3399C21.4669 38.1448 20.4059 36.8232 19.5085 35.4116C16.7341 31.0572 15.5004 25.8158 16.0348 20.6526C16.5769 15.4133 18.9306 10.4728 22.662 6.74149C31.6502 -2.24497 46.2737 -2.24497 55.2602 6.74149C64.2466 15.728 64.2466 30.3515 55.2602 39.3397C51.5287 43.0712 46.5882 45.4248 41.3488 45.9671C40.5613 46.0487 39.7713 46.089 38.9833 46.089ZM38.9617 3.26585C33.8947 3.26585 28.829 5.1939 24.9711 9.05097C21.7685 12.2536 19.7483 16.4934 19.2831 20.9889C18.8243 25.4224 19.8826 29.9212 22.2627 33.6568C22.2631 33.6574 22.2634 33.6579 22.2637 33.6584C23.0333 34.8692 23.9442 36.0038 24.9713 37.0307C25.9987 38.0581 27.1333 38.9691 28.3436 39.7383C32.0808 42.1193 36.5794 43.1778 41.0131 42.7187C45.5087 42.2535 49.7486 40.2334 52.9514 37.0307C60.6645 29.3159 60.6645 16.7642 52.9514 9.05097C49.0949 5.19471 44.0276 3.26585 38.9617 3.26585Z" fill="#5E2A41"/>
<path d="M38.9618 38.6154C34.9715 38.6154 30.9812 37.0967 27.943 34.0596C21.868 27.9827 21.868 18.0971 27.9428 12.0223C30.8865 9.0786 34.7999 7.45752 38.962 7.45752C43.1242 7.45752 47.0371 9.07876 49.9802 12.0224C52.9235 14.965 54.5448 18.878 54.5448 23.0403C54.5448 27.2024 52.9237 31.1158 49.98 34.0595C46.9424 37.0967 42.9521 38.6154 38.9618 38.6154ZM38.9618 10.7232C35.672 10.7232 32.5787 12.0046 30.2519 14.3316C25.4503 19.1331 25.4504 26.9473 30.2521 31.7505C35.0549 36.552 42.869 36.552 47.6707 31.7503C49.9976 29.4235 51.2789 26.3303 51.2789 23.0403C51.2789 19.7506 49.9975 16.6577 47.6708 14.3317C45.3444 12.0046 42.2515 10.7232 38.9618 10.7232Z" fill="#5E2A41"/>
<path d="M6.28641 61.9982C4.6766 61.9982 3.06728 61.3857 1.84167 60.1601C0.654113 58.9727 0 57.3941 0 55.7154C0 54.0368 0.654113 52.4582 1.84167 51.2706L19.7521 33.3585C20.3897 32.721 21.4236 32.721 22.0614 33.3585C22.699 33.9961 22.699 35.03 22.0614 35.6678L4.15083 53.58C3.57999 54.1506 3.26567 54.9089 3.26567 55.7154C3.26567 56.5218 3.57999 57.2803 4.15083 57.851C5.32843 59.0284 7.24456 59.0286 8.42199 57.851L26.3066 39.9682C26.9186 39.3484 27.9164 39.3159 28.5668 39.9073C29.2341 40.5139 29.2841 41.5457 28.6775 42.2128L28.6758 42.2146C28.6584 42.2339 28.6404 42.2527 28.6219 42.2711L10.7311 60.1601C9.50587 61.3854 7.89589 61.9982 6.28641 61.9982Z" fill="#5E2A41"/>
<path d="M33.1384 18.8509C32.7205 18.8509 32.3029 18.6916 31.9841 18.373C31.3464 17.7355 31.346 16.7016 31.9836 16.0637C33.8448 14.2017 36.3227 13.1763 38.9612 13.1763C41.5997 13.1763 44.0777 14.2016 45.9387 16.0637C46.5761 16.7015 46.576 17.7354 45.9382 18.373C45.3002 19.0104 44.2665 19.0101 43.629 18.3723C42.3848 17.1276 40.7271 16.4422 38.9612 16.4422C37.1953 16.4422 35.5375 17.1276 34.2935 18.3723C33.9744 18.6914 33.5564 18.8509 33.1384 18.8509Z" fill="#5E2A41"/>
<path d="M21.6806 48.5342C21.2628 48.5342 20.845 48.3747 20.5261 48.0559L13.9457 41.4756C13.3081 40.838 13.3081 39.8041 13.9457 39.1664C14.5834 38.529 15.6173 38.529 16.2549 39.1664L22.8352 45.7468C23.4728 46.3844 23.473 47.4183 22.8354 48.0559C22.5165 48.3748 22.0985 48.5342 21.6806 48.5342Z" fill="#5E2A41"/>
</g>
<defs>
<clipPath id="clip0_54_688">
<rect width="62" height="62" fill="white"/>
</clipPath>
</defs>
</svg>
