<svg width="62" height="62" viewBox="0 0 62 62" fill="none" xmlns="http://www.w3.org/2000/svg">
<path d="M58.1251 60.7083H3.87508C3.18994 60.7083 2.53286 60.4361 2.04839 59.9517C1.56392 59.4672 1.29175 58.8101 1.29175 58.125V3.87499C1.29175 3.18985 1.56392 2.53277 2.04839 2.0483C2.53286 1.56383 3.18994 1.29166 3.87508 1.29166H58.1251C58.8102 1.29166 59.4673 1.56383 59.9518 2.0483C60.4362 2.53277 60.7084 3.18985 60.7084 3.87499V58.125C60.7084 58.8101 60.4362 59.4672 59.9518 59.9517C59.4673 60.4361 58.8102 60.7083 58.1251 60.7083Z" fill="#8680D8"/>
<path d="M3.875 3.875H58.125V45.2083H3.875V3.875ZM54.25 54.25H36.1667C35.8241 54.25 35.4956 54.1139 35.2533 53.8717C35.0111 53.6294 34.875 53.3009 34.875 52.9583C34.875 52.6158 35.0111 52.2872 35.2533 52.045C35.4956 51.8028 35.8241 51.6667 36.1667 51.6667H54.25C54.5926 51.6667 54.9211 51.8028 55.1633 52.045C55.4056 52.2872 55.5417 52.6158 55.5417 52.9583C55.5417 53.3009 55.4056 53.6294 55.1633 53.8717C54.9211 54.1139 54.5926 54.25 54.25 54.25Z" fill="#5757B2"/>
<path d="M40.0416 54.25H7.74992C7.40735 54.25 7.07881 54.1139 6.83657 53.8717C6.59434 53.6295 6.45825 53.3009 6.45825 52.9584C6.45825 52.6158 6.59434 52.2872 6.83657 52.045C7.07881 51.8028 7.40735 51.6667 7.74992 51.6667H40.0416C40.3842 51.6667 40.7127 51.8028 40.9549 52.045C41.1972 52.2872 41.3333 52.6158 41.3333 52.9584C41.3333 53.3009 41.1972 53.6295 40.9549 53.8717C40.7127 54.1139 40.3842 54.25 40.0416 54.25Z" fill="#EF8EC3"/>
<path d="M38.7501 58.125C35.902 58.125 33.5834 55.8065 33.5834 52.9583C33.5834 50.1102 35.902 47.7917 38.7501 47.7917C41.5982 47.7917 43.9168 50.1102 43.9168 52.9583C43.9168 55.8065 41.5982 58.125 38.7501 58.125ZM25.8334 33.5833C25.6637 33.5839 25.4955 33.5508 25.3385 33.4861C25.1816 33.4213 25.039 33.3262 24.9189 33.2062C24.7989 33.0861 24.7038 32.9435 24.639 32.7866C24.5743 32.6296 24.5412 32.4614 24.5418 32.2917V16.7917C24.5417 16.5578 24.6052 16.3284 24.7253 16.1277C24.8455 15.9271 25.0179 15.7629 25.2241 15.6526C25.4302 15.5423 25.6625 15.49 25.8961 15.5013C26.1297 15.5127 26.3558 15.5872 26.5503 15.717L38.1753 23.467C38.3522 23.585 38.4972 23.7448 38.5976 23.9322C38.6979 24.1197 38.7504 24.3291 38.7504 24.5417C38.7504 24.7543 38.6979 24.9636 38.5976 25.1511C38.4972 25.3386 38.3522 25.4984 38.1753 25.6163L26.5503 33.3663C26.338 33.5079 26.0886 33.5834 25.8334 33.5833Z" fill="white"/>
</svg>
